<svg width="68" height="65" viewBox="0 0 68 65" fill="none" xmlns="http://www.w3.org/2000/svg">
<path d="M15.2533 49.3018C10.3214 44.8059 7.2175 38.6474 6.53515 32.0039C5.85279 25.3604 7.63988 18.6982 11.5547 13.2912C15.4694 7.88419 21.2372 4.11186 27.755 2.69556C34.2728 1.27925 41.0833 2.31836 46.8841 5.61419" stroke="#FF8A00" stroke-width="3" stroke-linecap="round" stroke-linejoin="round"/>
<path d="M5.74397 49.1083C2.29856 55.1523 1.14536 59.8424 3.09104 61.7935C6.04506 64.7487 15.2877 60.5705 25.9904 52.072" stroke="#FF8A00" stroke-width="3" stroke-linecap="round" stroke-linejoin="round"/>
<path d="M38.2412 49.9246L28.0725 39.7422L50.6736 17.1105C52.5172 15.2653 54.8276 13.9576 57.3571 13.3276L63.1714 11.8657C63.5728 11.7656 63.9932 11.7711 64.3918 11.8819C64.7904 11.9926 65.1536 12.2047 65.4461 12.4976C65.7386 12.7905 65.9504 13.1542 66.061 13.5533C66.1716 13.9524 66.1771 14.3734 66.0771 14.7754L64.6229 20.6004C63.991 23.1326 62.6832 25.445 60.8394 27.29L38.2412 49.9246Z" stroke="#FF8A00" stroke-width="3" stroke-linecap="round" stroke-linejoin="round"/>
<path d="M28.0728 39.7422L19.7448 36.9634C19.5502 36.899 19.3754 36.7857 19.2371 36.6344C19.0987 36.4831 19.0013 36.2988 18.9543 36.0991C18.9073 35.8994 18.9122 35.691 18.9686 35.4938C19.0249 35.2965 19.1308 35.117 19.2761 34.9724L22.179 32.0656C23.4409 30.8021 25.0293 29.9155 26.7661 29.505C28.5029 29.0946 30.3196 29.1766 32.0125 29.7418L36.5571 31.2549L28.0728 39.7422Z" stroke="#FF8A00" stroke-width="3" stroke-linecap="round" stroke-linejoin="round"/>
<path d="M38.2412 49.9247L41.0163 58.2668C41.0806 58.4616 41.1937 58.6367 41.3448 58.7752C41.4959 58.9138 41.6799 59.0112 41.8794 59.0583C42.0788 59.1054 42.2869 59.1005 42.4839 59.0441C42.6809 58.9877 42.8601 58.8817 43.0046 58.7361L45.9075 55.8293C47.1692 54.5657 48.0546 52.9752 48.4645 51.236C48.8744 49.4968 48.7925 47.6777 48.2281 45.9825L46.717 41.4318L38.2412 49.9247Z" stroke="#FF8A00" stroke-width="3" stroke-linecap="round" stroke-linejoin="round"/>
</svg>
