<svg width="824" height="620" viewBox="0 0 824 620" fill="none" xmlns="http://www.w3.org/2000/svg">
<rect opacity="0.4" x="89" width="682" height="620" rx="10" fill="#FFD452"/>
<g filter="url(#filter0_ddd)">
<rect x="24" y="106" width="686" height="120" rx="8" fill="white"/>
</g>
<rect opacity="0.2" x="553" y="147" width="117.167" height="38" rx="12.6667" fill="#56CCF2"/>
<path d="M567.32 172.5H575.87V170.448H569.619V159.01H567.32V172.5ZM582.258 172.652C585.108 172.652 587.122 170.695 587.122 167.883C587.122 165.033 585.108 163.095 582.258 163.095C579.332 163.095 577.394 165.147 577.394 167.883C577.394 170.6 579.332 172.652 582.258 172.652ZM582.258 170.714C580.662 170.714 579.56 169.46 579.56 167.883C579.56 166.268 580.643 165.014 582.258 165.014C583.778 165.014 584.956 166.173 584.956 167.883C584.956 169.555 583.759 170.714 582.258 170.714ZM589.338 172.5H591.466V167.845C591.466 166.021 592.416 165.014 593.86 165.014C595.133 165.014 595.874 165.641 595.874 167.598V172.5H598.002V167.047C598.002 164.254 596.634 163.095 594.601 163.095C593.385 163.095 592.264 163.589 591.504 164.501H591.466V163.228H589.338V172.5ZM604.742 176.395C608.181 176.395 609.473 174.362 609.473 171.55V163.228H607.345V164.216H607.307C606.528 163.475 605.483 163.095 604.419 163.095C601.854 163.095 600.011 165.052 600.011 167.769C600.011 170.524 601.949 172.348 604.533 172.348C605.673 172.348 606.642 171.93 607.345 171.227H607.383V172.196C607.383 173.431 606.452 174.476 604.628 174.476C603.298 174.476 602.481 174.096 601.474 173.564L600.961 175.426C602.006 176.053 603.355 176.395 604.742 176.395ZM604.818 170.391C603.317 170.391 602.177 169.365 602.177 167.712C602.177 166.135 603.241 165.033 604.818 165.033C606.3 165.033 607.44 166.097 607.44 167.674C607.44 169.251 606.357 170.391 604.818 170.391ZM619.98 172.652C621.196 172.652 621.785 172.405 622.336 172.101L621.785 170.258C621.291 170.524 620.778 170.657 620.417 170.657C619.809 170.657 619.524 170.315 619.524 169.365V165.033H622.241V163.228H619.524V159.922L617.396 160.15V163.228H616.256V165.033H617.396V169.574C617.396 171.645 618.384 172.652 619.98 172.652ZM632.194 167.75C632.194 165.052 630.427 163.095 627.824 163.095C625.107 163.095 623.169 165.014 623.169 167.864C623.169 170.771 625.164 172.652 627.976 172.652C629.971 172.652 631.13 171.911 631.909 170.904L630.427 169.631C629.952 170.22 629.192 170.714 628.09 170.714C626.646 170.714 625.639 169.916 625.373 168.567H632.137C632.156 168.415 632.194 168.092 632.194 167.75ZM627.805 165.014C629.021 165.014 629.781 165.774 630.047 166.895H625.411C625.715 165.679 626.627 165.014 627.805 165.014ZM634.388 172.5H636.516V168.111C636.516 166.591 637.428 165.432 639.043 165.432C639.195 165.432 639.442 165.451 639.689 165.47V163.095H639.423C638.302 163.095 637.276 163.646 636.554 164.615H636.516V163.228H634.388V172.5ZM641.458 172.5H643.586V167.883C643.586 166.059 644.536 165.014 645.809 165.014C647.063 165.014 647.652 166.002 647.652 167.674V172.5H649.78V167.883C649.78 166.059 650.749 165.014 651.946 165.014C653.2 165.014 653.751 166.002 653.751 167.674V172.5H655.879V167.142C655.879 164.368 654.663 163.095 652.63 163.095C651.262 163.095 650.084 163.627 649.305 164.634H649.267C648.716 163.589 647.747 163.095 646.493 163.095C645.429 163.095 644.365 163.589 643.605 164.501H643.586V163.228H641.458V172.5Z" fill="#28B0DC"/>
<g filter="url(#filter1_ddd)">
<rect x="64" y="246" width="686" height="120" rx="8" fill="white"/>
</g>
<circle cx="124" cy="306" r="19" stroke="#BCB8CE" stroke-width="2"/>
<path d="M124 292.667V306L132.333 316C136.333 314 137.333 308.5 137.333 306C137.333 296 128.444 292.944 124 292.667Z" fill="#BCB8CE"/>
<path d="M162.184 314H165.088V296.96H162.184V314ZM169.041 314H171.729V308.12C171.729 305.816 172.929 304.544 174.753 304.544C176.361 304.544 177.297 305.336 177.297 307.808V314H179.985V307.112C179.985 303.584 178.257 302.12 175.689 302.12C174.153 302.12 172.737 302.744 171.777 303.896H171.729V302.288H169.041V314ZM188.548 314.192C191.092 314.192 192.604 313.28 193.588 312.008L191.74 310.376C191.14 311.168 190.084 311.744 188.788 311.744C186.724 311.744 185.308 310.304 185.308 308.144C185.308 306.008 186.7 304.544 188.788 304.544C190.06 304.544 191.068 305.096 191.74 305.888L193.564 304.304C192.388 302.864 190.468 302.12 188.644 302.12C185.092 302.12 182.572 304.568 182.572 308.168C182.572 311.744 185.092 314.192 188.548 314.192ZM196.041 314H198.729V308.456C198.729 306.536 199.881 305.072 201.921 305.072C202.113 305.072 202.425 305.096 202.737 305.12V302.12H202.401C200.985 302.12 199.689 302.816 198.777 304.04H198.729V302.288H196.041V314ZM215.347 308C215.347 304.592 213.115 302.12 209.827 302.12C206.395 302.12 203.947 304.544 203.947 308.144C203.947 311.816 206.467 314.192 210.019 314.192C212.539 314.192 214.003 313.256 214.987 311.984L213.115 310.376C212.515 311.12 211.555 311.744 210.163 311.744C208.339 311.744 207.067 310.736 206.731 309.032H215.275C215.299 308.84 215.347 308.432 215.347 308ZM209.803 304.544C211.339 304.544 212.299 305.504 212.635 306.92H206.779C207.163 305.384 208.315 304.544 209.803 304.544ZM223.063 314.192C224.695 314.192 225.943 313.568 226.783 312.44L226.831 312.464V314H229.399V302.288H226.711V303.704L226.663 303.728C225.823 302.672 224.527 302.12 223.039 302.12C219.823 302.12 217.399 304.664 217.399 308.192C217.399 311.816 219.823 314.192 223.063 314.192ZM223.495 311.744C221.503 311.744 220.135 310.28 220.135 308.216C220.135 305.96 221.623 304.544 223.495 304.544C225.415 304.544 226.831 306.128 226.831 308.216C226.831 310.328 225.319 311.744 223.495 311.744ZM236.535 314.192C239.511 314.192 240.903 312.608 240.903 310.64C240.903 308.312 239.343 307.856 236.847 306.872C235.719 306.44 234.999 306.032 234.999 305.456C234.999 304.736 235.743 304.448 236.271 304.448C237.183 304.448 238.263 304.808 239.199 305.696L240.543 303.584C239.247 302.528 237.903 302.12 236.415 302.12C234.015 302.12 232.287 303.512 232.287 305.432C232.287 307.736 233.943 308.6 235.863 309.272C237.399 309.8 238.167 310.088 238.167 310.688C238.167 311.384 237.567 311.84 236.535 311.84C235.095 311.84 234.087 311.384 233.151 310.472L231.807 312.488C233.031 313.568 234.639 314.192 236.535 314.192ZM254.276 308C254.276 304.592 252.044 302.12 248.756 302.12C245.324 302.12 242.876 304.544 242.876 308.144C242.876 311.816 245.396 314.192 248.948 314.192C251.468 314.192 252.932 313.256 253.916 311.984L252.044 310.376C251.444 311.12 250.484 311.744 249.092 311.744C247.268 311.744 245.996 310.736 245.66 309.032H254.204C254.228 308.84 254.276 308.432 254.276 308ZM248.732 304.544C250.268 304.544 251.228 305.504 251.564 306.92H245.708C246.092 305.384 247.244 304.544 248.732 304.544ZM268.751 314.192C271.295 314.192 272.807 313.28 273.791 312.008L271.943 310.376C271.343 311.168 270.287 311.744 268.991 311.744C266.927 311.744 265.511 310.304 265.511 308.144C265.511 306.008 266.903 304.544 268.991 304.544C270.263 304.544 271.271 305.096 271.943 305.888L273.767 304.304C272.591 302.864 270.671 302.12 268.847 302.12C265.295 302.12 262.775 304.568 262.775 308.168C262.775 311.744 265.295 314.192 268.751 314.192ZM281.692 314.192C285.292 314.192 287.836 311.72 287.836 308.168C287.836 304.568 285.292 302.12 281.692 302.12C277.996 302.12 275.548 304.712 275.548 308.168C275.548 311.6 277.996 314.192 281.692 314.192ZM281.692 311.744C279.676 311.744 278.284 310.16 278.284 308.168C278.284 306.128 279.652 304.544 281.692 304.544C283.612 304.544 285.1 306.008 285.1 308.168C285.1 310.28 283.588 311.744 281.692 311.744ZM290.635 314H293.323V308.12C293.323 305.816 294.523 304.544 296.347 304.544C297.955 304.544 298.891 305.336 298.891 307.808V314H301.579V307.112C301.579 303.584 299.851 302.12 297.283 302.12C295.747 302.12 294.331 302.744 293.371 303.896H293.323V302.288H290.635V314ZM307.8 314H310.368L315.023 302.288H312.168L309.12 310.64H309.096L306.048 302.288H303.168L307.8 314ZM327.237 308C327.237 304.592 325.005 302.12 321.717 302.12C318.285 302.12 315.837 304.544 315.837 308.144C315.837 311.816 318.357 314.192 321.909 314.192C324.429 314.192 325.893 313.256 326.877 311.984L325.005 310.376C324.405 311.12 323.445 311.744 322.053 311.744C320.229 311.744 318.957 310.736 318.621 309.032H327.165C327.189 308.84 327.237 308.432 327.237 308ZM321.693 304.544C323.229 304.544 324.189 305.504 324.525 306.92H318.669C319.053 305.384 320.205 304.544 321.693 304.544ZM330.01 314H332.698V308.456C332.698 306.536 333.85 305.072 335.89 305.072C336.082 305.072 336.394 305.096 336.706 305.12V302.12H336.37C334.954 302.12 333.658 302.816 332.746 304.04H332.698V302.288H330.01V314ZM342.684 314.192C345.66 314.192 347.052 312.608 347.052 310.64C347.052 308.312 345.492 307.856 342.996 306.872C341.868 306.44 341.148 306.032 341.148 305.456C341.148 304.736 341.892 304.448 342.42 304.448C343.332 304.448 344.412 304.808 345.348 305.696L346.692 303.584C345.396 302.528 344.052 302.12 342.564 302.12C340.164 302.12 338.436 303.512 338.436 305.432C338.436 307.736 340.092 308.6 342.012 309.272C343.548 309.8 344.316 310.088 344.316 310.688C344.316 311.384 343.716 311.84 342.684 311.84C341.244 311.84 340.236 311.384 339.3 310.472L337.956 312.488C339.18 313.568 340.788 314.192 342.684 314.192ZM351.233 300.56C352.241 300.56 353.057 299.744 353.057 298.76C353.057 297.8 352.241 296.984 351.233 296.984C350.225 296.984 349.433 297.8 349.433 298.76C349.433 299.744 350.225 300.56 351.233 300.56ZM349.889 314H352.577V302.288H349.889V314ZM361.708 314.192C365.308 314.192 367.852 311.72 367.852 308.168C367.852 304.568 365.308 302.12 361.708 302.12C358.012 302.12 355.564 304.712 355.564 308.168C355.564 311.6 358.012 314.192 361.708 314.192ZM361.708 311.744C359.692 311.744 358.3 310.16 358.3 308.168C358.3 306.128 359.668 304.544 361.708 304.544C363.628 304.544 365.116 306.008 365.116 308.168C365.116 310.28 363.604 311.744 361.708 311.744ZM370.65 314H373.338V308.12C373.338 305.816 374.538 304.544 376.362 304.544C377.97 304.544 378.906 305.336 378.906 307.808V314H381.594V307.112C381.594 303.584 379.866 302.12 377.298 302.12C375.762 302.12 374.346 302.744 373.386 303.896H373.338V302.288H370.65V314ZM391.299 314H393.987V308.456C393.987 306.536 395.139 305.072 397.179 305.072C397.371 305.072 397.683 305.096 397.995 305.12V302.12H397.659C396.243 302.12 394.947 302.816 394.035 304.04H393.987V302.288H391.299V314ZM404.844 314.192C406.476 314.192 407.724 313.568 408.564 312.44L408.612 312.464V314H411.18V302.288H408.492V303.704L408.444 303.728C407.604 302.672 406.308 302.12 404.82 302.12C401.604 302.12 399.18 304.664 399.18 308.192C399.18 311.816 401.604 314.192 404.844 314.192ZM405.276 311.744C403.284 311.744 401.916 310.28 401.916 308.216C401.916 305.96 403.404 304.544 405.276 304.544C407.196 304.544 408.612 306.128 408.612 308.216C408.612 310.328 407.1 311.744 405.276 311.744ZM418.052 314.192C419.588 314.192 420.332 313.88 421.028 313.496L420.332 311.168C419.708 311.504 419.06 311.672 418.604 311.672C417.836 311.672 417.476 311.24 417.476 310.04V304.568H420.908V302.288H417.476V298.112L414.788 298.4V302.288H413.348V304.568H414.788V310.304C414.788 312.92 416.036 314.192 418.052 314.192ZM433.479 308C433.479 304.592 431.247 302.12 427.959 302.12C424.527 302.12 422.079 304.544 422.079 308.144C422.079 311.816 424.599 314.192 428.151 314.192C430.671 314.192 432.135 313.256 433.119 311.984L431.247 310.376C430.647 311.12 429.687 311.744 428.295 311.744C426.471 311.744 425.199 310.736 424.863 309.032H433.407C433.431 308.84 433.479 308.432 433.479 308ZM427.935 304.544C429.471 304.544 430.431 305.504 430.767 306.92H424.911C425.295 305.384 426.447 304.544 427.935 304.544ZM449.082 314.192C452.346 314.192 454.77 311.816 454.77 308.192C454.77 304.664 452.346 302.12 449.106 302.12C447.57 302.12 446.298 302.648 445.386 303.68H445.362V296.336H442.674V314H445.242V312.44H445.29C446.154 313.568 447.402 314.192 449.082 314.192ZM448.674 311.744C446.754 311.744 445.242 310.328 445.242 308.216C445.242 306.128 446.634 304.544 448.65 304.544C450.522 304.544 452.034 305.96 452.034 308.216C452.034 310.28 450.642 311.744 448.674 311.744ZM458.152 318.752H460.936L467.368 302.288H464.608L461.608 310.136H461.56L458.344 302.288H455.464L460.264 313.352L458.152 318.752ZM479.961 312.992H482.433V308.576H486.873V306.128H482.433V301.688H479.961V306.128H475.521V308.576H479.961V312.992ZM488.735 314H499.319V311.456H492.959L492.935 311.384L496.415 307.76C498.503 305.6 499.151 304.04 499.151 302.216C499.151 299.192 496.703 297.368 493.991 297.368C491.303 297.368 489.599 298.712 488.663 300.488L490.655 301.904C491.399 300.608 492.479 299.96 493.799 299.96C495.287 299.96 496.319 301.064 496.319 302.528C496.319 303.944 495.335 305.144 493.991 306.56L488.687 312.152L488.735 314ZM507.604 303.416C507.028 303.416 506.236 303.536 505.468 303.776L505.684 300.08H511.996V297.512H503.068L502.588 306.152L504.1 306.68C504.892 306.032 505.78 305.816 506.788 305.816C508.348 305.816 509.98 306.824 509.98 308.672C509.98 310.352 508.756 311.624 506.74 311.624C505.276 311.624 504.076 310.928 503.38 309.92L501.364 311.528C502.66 313.256 504.724 314.192 506.98 314.192C510.484 314.192 512.812 311.96 512.812 308.72C512.812 305.408 510.46 303.416 507.604 303.416ZM523.343 314.528L530.879 297.536L528.719 296.6L521.183 313.592L523.343 314.528ZM519.647 306.296C522.527 306.296 524.471 304.136 524.471 301.52C524.471 298.664 522.287 296.768 519.647 296.768C516.743 296.768 514.799 298.904 514.799 301.52C514.799 304.4 516.983 306.296 519.647 306.296ZM519.647 304.256C518.255 304.256 517.127 303.152 517.127 301.544C517.127 300.056 518.135 298.856 519.647 298.856C521.087 298.856 522.215 299.936 522.215 301.544C522.215 303.032 521.207 304.256 519.647 304.256ZM532.343 314.192C535.247 314.192 537.191 312.032 537.191 309.416C537.191 306.56 535.007 304.664 532.343 304.664C529.463 304.664 527.519 306.8 527.519 309.416C527.519 312.272 529.703 314.192 532.343 314.192ZM532.367 312.128C530.951 312.128 529.799 311.048 529.799 309.44C529.799 307.952 530.831 306.752 532.367 306.752C533.783 306.752 534.935 307.832 534.935 309.44C534.935 310.928 533.903 312.128 532.367 312.128Z" fill="#746E8C"/>
<rect opacity="0.2" x="588.833" y="287" width="120.333" height="38" rx="12.6667" fill="#F2C94C"/>
<path d="M607.181 312.652C609.347 312.652 611.836 311.398 611.836 308.605C611.836 306.002 609.974 305.375 607.656 304.463C606.022 303.836 605.11 303.494 605.129 302.506C605.148 301.499 605.984 300.929 607.029 300.929C607.941 300.929 609.024 301.404 610.126 302.316L611.494 300.511C610.126 299.428 608.625 298.858 607.029 298.858C604.692 298.858 602.754 300.511 602.754 302.62C602.754 305.09 604.787 306.002 606.839 306.724C608.549 307.332 609.442 307.712 609.442 308.89C609.442 309.878 608.682 310.524 607.2 310.524C606.041 310.524 604.711 309.935 603.742 308.757L602.298 310.524C603.704 311.987 605.452 312.652 607.181 312.652ZM614.113 312.5H616.241V307.788C616.241 305.964 617.191 305.014 618.73 305.014C620.003 305.014 620.744 305.66 620.744 307.503V312.5H622.872V306.952C622.872 304.178 621.447 303.095 619.414 303.095C618.16 303.095 617.039 303.532 616.26 304.387H616.241V298.516H614.113V312.5ZM629.781 312.652C632.631 312.652 634.645 310.695 634.645 307.883C634.645 305.033 632.631 303.095 629.781 303.095C626.855 303.095 624.917 305.147 624.917 307.883C624.917 310.6 626.855 312.652 629.781 312.652ZM629.781 310.714C628.185 310.714 627.083 309.46 627.083 307.883C627.083 306.268 628.166 305.014 629.781 305.014C631.301 305.014 632.479 306.173 632.479 307.883C632.479 309.555 631.282 310.714 629.781 310.714ZM636.861 312.5H638.989V308.111C638.989 306.591 639.901 305.432 641.516 305.432C641.668 305.432 641.915 305.451 642.162 305.47V303.095H641.896C640.775 303.095 639.749 303.646 639.027 304.615H638.989V303.228H636.861V312.5ZM646.685 312.652C647.901 312.652 648.49 312.405 649.041 312.101L648.49 310.258C647.996 310.524 647.483 310.657 647.122 310.657C646.514 310.657 646.229 310.315 646.229 309.365V305.033H648.946V303.228H646.229V299.922L644.101 300.15V303.228H642.961V305.033H644.101V309.574C644.101 311.645 645.089 312.652 646.685 312.652ZM658.708 312.652C659.924 312.652 660.513 312.405 661.064 312.101L660.513 310.258C660.019 310.524 659.506 310.657 659.145 310.657C658.537 310.657 658.252 310.315 658.252 309.365V305.033H660.969V303.228H658.252V299.922L656.124 300.15V303.228H654.984V305.033H656.124V309.574C656.124 311.645 657.112 312.652 658.708 312.652ZM670.922 307.75C670.922 305.052 669.155 303.095 666.552 303.095C663.835 303.095 661.897 305.014 661.897 307.864C661.897 310.771 663.892 312.652 666.704 312.652C668.699 312.652 669.858 311.911 670.637 310.904L669.155 309.631C668.68 310.22 667.92 310.714 666.818 310.714C665.374 310.714 664.367 309.916 664.101 308.567H670.865C670.884 308.415 670.922 308.092 670.922 307.75ZM666.533 305.014C667.749 305.014 668.509 305.774 668.775 306.895H664.139C664.443 305.679 665.355 305.014 666.533 305.014ZM673.116 312.5H675.244V308.111C675.244 306.591 676.156 305.432 677.771 305.432C677.923 305.432 678.17 305.451 678.417 305.47V303.095H678.151C677.03 303.095 676.004 303.646 675.282 304.615H675.244V303.228H673.116V312.5ZM680.186 312.5H682.314V307.883C682.314 306.059 683.264 305.014 684.537 305.014C685.791 305.014 686.38 306.002 686.38 307.674V312.5H688.508V307.883C688.508 306.059 689.477 305.014 690.674 305.014C691.928 305.014 692.479 306.002 692.479 307.674V312.5H694.607V307.142C694.607 304.368 693.391 303.095 691.358 303.095C689.99 303.095 688.812 303.627 688.033 304.634H687.995C687.444 303.589 686.475 303.095 685.221 303.095C684.157 303.095 683.093 303.589 682.333 304.501H682.314V303.228H680.186V312.5Z" fill="#FF8A00"/>
<g filter="url(#filter2_ddd)">
<rect x="114" y="386" width="686" height="120" rx="8" fill="white"/>
</g>
<rect opacity="0.2" x="672.958" y="427" width="87.0833" height="38" rx="12.6667" fill="#EB5757"/>
<path d="M692.446 452.652C695.809 452.652 697.842 450.448 697.842 446.952V439.01H695.543V446.781C695.543 449.099 694.251 450.486 692.446 450.486C690.508 450.486 689.368 448.928 689.368 446.781V439.01H687.088V446.952C687.088 450.581 689.254 452.652 692.446 452.652ZM700.668 452.5H702.796V448.111C702.796 446.591 703.708 445.432 705.323 445.432C705.475 445.432 705.722 445.451 705.969 445.47V443.095H705.703C704.582 443.095 703.556 443.646 702.834 444.615H702.796V443.228H700.668V452.5ZM711.62 456.395C715.059 456.395 716.351 454.362 716.351 451.55V443.228H714.223V444.216H714.185C713.406 443.475 712.361 443.095 711.297 443.095C708.732 443.095 706.889 445.052 706.889 447.769C706.889 450.524 708.827 452.348 711.411 452.348C712.551 452.348 713.52 451.93 714.223 451.227H714.261V452.196C714.261 453.431 713.33 454.476 711.506 454.476C710.176 454.476 709.359 454.096 708.352 453.564L707.839 455.426C708.884 456.053 710.233 456.395 711.62 456.395ZM711.696 450.391C710.195 450.391 709.055 449.365 709.055 447.712C709.055 446.135 710.119 445.033 711.696 445.033C713.178 445.033 714.318 446.097 714.318 447.674C714.318 449.251 713.235 450.391 711.696 450.391ZM727.493 447.75C727.493 445.052 725.726 443.095 723.123 443.095C720.406 443.095 718.468 445.014 718.468 447.864C718.468 450.771 720.463 452.652 723.275 452.652C725.27 452.652 726.429 451.911 727.208 450.904L725.726 449.631C725.251 450.22 724.491 450.714 723.389 450.714C721.945 450.714 720.938 449.916 720.672 448.567H727.436C727.455 448.415 727.493 448.092 727.493 447.75ZM723.104 445.014C724.32 445.014 725.08 445.774 725.346 446.895H720.71C721.014 445.679 721.926 445.014 723.104 445.014ZM729.688 452.5H731.816V447.845C731.816 446.021 732.766 445.014 734.21 445.014C735.483 445.014 736.224 445.641 736.224 447.598V452.5H738.352V447.047C738.352 444.254 736.984 443.095 734.951 443.095C733.735 443.095 732.614 443.589 731.854 444.501H731.816V443.228H729.688V452.5ZM743.705 452.652C744.921 452.652 745.51 452.405 746.061 452.101L745.51 450.258C745.016 450.524 744.503 450.657 744.142 450.657C743.534 450.657 743.249 450.315 743.249 449.365V445.033H745.966V443.228H743.249V439.922L741.121 440.15V443.228H739.981V445.033H741.121V449.574C741.121 451.645 742.109 452.652 743.705 452.652Z" fill="#EB5757"/>
<circle cx="174" cy="446" r="19" stroke="#BCB8CE" stroke-width="2"/>
<path d="M174 432.667V446H187.333C187.333 437.667 183.167 432.667 174 432.667Z" fill="#BCB8CE"/>
<path d="M174 459.333V446H187.333C187.333 454.333 183.167 459.333 174 459.333Z" fill="#BCB8CE"/>
<path d="M174 459.333V446L160.667 450.167C163.167 456 167.333 459.333 174 459.333Z" fill="#BCB8CE"/>
<path d="M218.616 454.192C222.864 454.192 225.432 451.408 225.432 446.992V436.96H222.528V446.776C222.528 449.704 220.896 451.456 218.616 451.456C216.168 451.456 214.728 449.488 214.728 446.776V436.96H211.848V446.992C211.848 451.576 214.584 454.192 218.616 454.192ZM229.002 458.752H231.69V452.584L231.738 452.56C232.602 453.616 233.826 454.192 235.41 454.192C238.674 454.192 241.098 451.816 241.098 448.192C241.098 444.664 238.674 442.12 235.434 442.12C233.898 442.12 232.602 442.672 231.738 443.68H231.69V442.288H229.002V458.752ZM235.002 451.744C233.082 451.744 231.57 450.328 231.57 448.216C231.57 446.128 232.962 444.544 234.978 444.544C236.85 444.544 238.362 445.96 238.362 448.216C238.362 450.28 236.97 451.744 235.002 451.744ZM248.876 454.192C250.556 454.192 251.828 453.544 252.692 452.416H252.716V454H255.284V436.336H252.62V443.728H252.596C251.708 442.672 250.388 442.12 248.852 442.12C245.636 442.12 243.188 444.664 243.188 448.192C243.188 451.816 245.636 454.192 248.876 454.192ZM249.284 451.744C247.316 451.744 245.924 450.28 245.924 448.216C245.924 445.96 247.436 444.544 249.308 444.544C251.324 444.544 252.716 446.128 252.716 448.216C252.716 450.328 251.204 451.744 249.284 451.744ZM263.735 454.192C265.367 454.192 266.615 453.568 267.455 452.44L267.503 452.464V454H270.071V442.288H267.383V443.704L267.335 443.728C266.495 442.672 265.199 442.12 263.711 442.12C260.495 442.12 258.071 444.664 258.071 448.192C258.071 451.816 260.495 454.192 263.735 454.192ZM264.167 451.744C262.175 451.744 260.807 450.28 260.807 448.216C260.807 445.96 262.295 444.544 264.167 444.544C266.087 444.544 267.503 446.128 267.503 448.216C267.503 450.328 265.991 451.744 264.167 451.744ZM276.943 454.192C278.479 454.192 279.223 453.88 279.919 453.496L279.223 451.168C278.599 451.504 277.951 451.672 277.495 451.672C276.727 451.672 276.367 451.24 276.367 450.04V444.568H279.799V442.288H276.367V438.112L273.679 438.4V442.288H272.239V444.568H273.679V450.304C273.679 452.92 274.927 454.192 276.943 454.192ZM292.37 448C292.37 444.592 290.138 442.12 286.85 442.12C283.418 442.12 280.97 444.544 280.97 448.144C280.97 451.816 283.49 454.192 287.042 454.192C289.562 454.192 291.026 453.256 292.01 451.984L290.138 450.376C289.538 451.12 288.578 451.744 287.186 451.744C285.362 451.744 284.09 450.736 283.754 449.032H292.298C292.322 448.84 292.37 448.432 292.37 448ZM286.826 444.544C288.362 444.544 289.322 445.504 289.658 446.92H283.802C284.186 445.384 285.338 444.544 286.826 444.544ZM305.045 454.192C306.581 454.192 307.325 453.88 308.021 453.496L307.325 451.168C306.701 451.504 306.053 451.672 305.597 451.672C304.829 451.672 304.469 451.24 304.469 450.04V444.568H307.901V442.288H304.469V438.112L301.781 438.4V442.288H300.341V444.568H301.781V450.304C301.781 452.92 303.029 454.192 305.045 454.192ZM310.33 454H313.018V448.048C313.018 445.744 314.218 444.544 316.162 444.544C317.77 444.544 318.706 445.36 318.706 447.688V454H321.394V446.992C321.394 443.488 319.594 442.12 317.026 442.12C315.442 442.12 314.026 442.672 313.042 443.752H313.018V436.336H310.33V454ZM335.378 448C335.378 444.592 333.146 442.12 329.858 442.12C326.426 442.12 323.978 444.544 323.978 448.144C323.978 451.816 326.498 454.192 330.05 454.192C332.57 454.192 334.034 453.256 335.018 451.984L333.146 450.376C332.546 451.12 331.586 451.744 330.194 451.744C328.37 451.744 327.098 450.736 326.762 449.032H335.306C335.33 448.84 335.378 448.432 335.378 448ZM329.834 444.544C331.37 444.544 332.33 445.504 332.666 446.92H326.81C327.194 445.384 328.346 444.544 329.834 444.544ZM344.572 454H347.26V448.168C347.26 445.864 348.46 444.544 350.068 444.544C351.652 444.544 352.396 445.792 352.396 447.904V454H355.084V448.168C355.084 445.864 356.308 444.544 357.82 444.544C359.404 444.544 360.1 445.792 360.1 447.904V454H362.788V447.232C362.788 443.728 361.252 442.12 358.684 442.12C356.956 442.12 355.468 442.792 354.484 444.064H354.436C353.74 442.744 352.516 442.12 350.932 442.12C349.588 442.12 348.244 442.744 347.284 443.896H347.26V442.288H344.572V454ZM371.055 454.192C372.687 454.192 373.935 453.568 374.775 452.44L374.823 452.464V454H377.391V442.288H374.703V443.704L374.655 443.728C373.815 442.672 372.519 442.12 371.031 442.12C367.815 442.12 365.391 444.664 365.391 448.192C365.391 451.816 367.815 454.192 371.055 454.192ZM371.487 451.744C369.495 451.744 368.127 450.28 368.127 448.216C368.127 445.96 369.615 444.544 371.487 444.544C373.407 444.544 374.823 446.128 374.823 448.216C374.823 450.328 373.311 451.744 371.487 451.744ZM380.783 454H383.471V448.456C383.471 446.536 384.623 445.072 386.663 445.072C386.855 445.072 387.167 445.096 387.479 445.12V442.12H387.143C385.727 442.12 384.431 442.816 383.519 444.04H383.471V442.288H380.783V454ZM389.713 454H392.401V450.904L394.297 448.84L397.441 454H400.465L396.169 446.992L400.393 442.288H397.201L392.449 447.712L392.401 447.688V436.336H389.713V454ZM412.604 448C412.604 444.592 410.372 442.12 407.084 442.12C403.652 442.12 401.204 444.544 401.204 448.144C401.204 451.816 403.724 454.192 407.276 454.192C409.796 454.192 411.26 453.256 412.244 451.984L410.372 450.376C409.772 451.12 408.812 451.744 407.42 451.744C405.596 451.744 404.324 450.736 403.988 449.032H412.532C412.556 448.84 412.604 448.432 412.604 448ZM407.06 444.544C408.596 444.544 409.556 445.504 409.892 446.92H404.036C404.42 445.384 405.572 444.544 407.06 444.544ZM418.857 454.192C420.393 454.192 421.137 453.88 421.833 453.496L421.137 451.168C420.513 451.504 419.865 451.672 419.409 451.672C418.641 451.672 418.281 451.24 418.281 450.04V444.568H421.713V442.288H418.281V438.112L415.593 438.4V442.288H414.153V444.568H415.593V450.304C415.593 452.92 416.841 454.192 418.857 454.192ZM425.655 440.56C426.663 440.56 427.479 439.744 427.479 438.76C427.479 437.8 426.663 436.984 425.655 436.984C424.647 436.984 423.855 437.8 423.855 438.76C423.855 439.744 424.647 440.56 425.655 440.56ZM424.311 454H426.999V442.288H424.311V454ZM430.682 454H433.37V448.12C433.37 445.816 434.57 444.544 436.394 444.544C438.002 444.544 438.938 445.336 438.938 447.808V454H441.626V447.112C441.626 443.584 439.898 442.12 437.33 442.12C435.794 442.12 434.378 442.744 433.418 443.896H433.37V442.288H430.682V454ZM450.14 458.92C454.484 458.92 456.116 456.352 456.116 452.8V442.288H453.428V443.536H453.38C452.396 442.6 451.076 442.12 449.732 442.12C446.492 442.12 444.164 444.592 444.164 448.024C444.164 451.504 446.612 453.808 449.876 453.808C451.316 453.808 452.54 453.28 453.428 452.392H453.476V453.616C453.476 455.176 452.3 456.496 449.996 456.496C448.316 456.496 447.284 456.016 446.012 455.344L445.364 457.696C446.684 458.488 448.388 458.92 450.14 458.92ZM450.236 451.336C448.34 451.336 446.9 450.04 446.9 447.952C446.9 445.96 448.244 444.568 450.236 444.568C452.108 444.568 453.548 445.912 453.548 447.904C453.548 449.896 452.18 451.336 450.236 451.336ZM468.692 454H471.116L473.372 446.632H473.396L475.652 454H478.124L482.108 442.288H479.396L476.924 450.064H476.876L474.524 442.288H472.292L469.988 450.064H469.94L467.468 442.288H464.708L468.692 454ZM494.401 448C494.401 444.592 492.169 442.12 488.881 442.12C485.449 442.12 483.001 444.544 483.001 448.144C483.001 451.816 485.521 454.192 489.073 454.192C491.593 454.192 493.057 453.256 494.041 451.984L492.169 450.376C491.569 451.12 490.609 451.744 489.217 451.744C487.393 451.744 486.121 450.736 485.785 449.032H494.329C494.353 448.84 494.401 448.432 494.401 448ZM488.857 444.544C490.393 444.544 491.353 445.504 491.689 446.92H485.833C486.217 445.384 487.369 444.544 488.857 444.544ZM503.582 454.192C506.846 454.192 509.27 451.816 509.27 448.192C509.27 444.664 506.846 442.12 503.606 442.12C502.07 442.12 500.798 442.648 499.886 443.68H499.862V436.336H497.174V454H499.742V452.44H499.79C500.654 453.568 501.902 454.192 503.582 454.192ZM503.174 451.744C501.254 451.744 499.742 450.328 499.742 448.216C499.742 446.128 501.134 444.544 503.15 444.544C505.022 444.544 506.534 445.96 506.534 448.216C506.534 450.28 505.142 451.744 503.174 451.744ZM515.824 454.192C518.8 454.192 520.192 452.608 520.192 450.64C520.192 448.312 518.632 447.856 516.136 446.872C515.008 446.44 514.288 446.032 514.288 445.456C514.288 444.736 515.032 444.448 515.56 444.448C516.472 444.448 517.552 444.808 518.488 445.696L519.832 443.584C518.536 442.528 517.192 442.12 515.704 442.12C513.304 442.12 511.576 443.512 511.576 445.432C511.576 447.736 513.232 448.6 515.152 449.272C516.688 449.8 517.456 450.088 517.456 450.688C517.456 451.384 516.856 451.84 515.824 451.84C514.384 451.84 513.376 451.384 512.44 450.472L511.096 452.488C512.32 453.568 513.928 454.192 515.824 454.192ZM524.373 440.56C525.381 440.56 526.197 439.744 526.197 438.76C526.197 437.8 525.381 436.984 524.373 436.984C523.365 436.984 522.573 437.8 522.573 438.76C522.573 439.744 523.365 440.56 524.373 440.56ZM523.029 454H525.717V442.288H523.029V454ZM532.88 454.192C534.416 454.192 535.16 453.88 535.856 453.496L535.16 451.168C534.536 451.504 533.888 451.672 533.432 451.672C532.664 451.672 532.304 451.24 532.304 450.04V444.568H535.736V442.288H532.304V438.112L529.616 438.4V442.288H528.176V444.568H529.616V450.304C529.616 452.92 530.864 454.192 532.88 454.192ZM548.308 448C548.308 444.592 546.076 442.12 542.788 442.12C539.356 442.12 536.908 444.544 536.908 448.144C536.908 451.816 539.428 454.192 542.98 454.192C545.5 454.192 546.964 453.256 547.948 451.984L546.076 450.376C545.476 451.12 544.516 451.744 543.124 451.744C541.3 451.744 540.028 450.736 539.692 449.032H548.236C548.26 448.84 548.308 448.432 548.308 448ZM542.764 444.544C544.3 444.544 545.26 445.504 545.596 446.92H539.74C540.124 445.384 541.276 444.544 542.764 444.544Z" fill="#746E8C"/>
<circle cx="84" cy="166" r="18.75" stroke="#BCB8CE" stroke-width="2.5"/>
<path d="M84 152.667V166L93.8992 156C91.7106 153.841 88.4425 152.667 84 152.667Z" fill="#BCB8CE"/>
<path d="M122.184 174H125.088V156.96H122.184V174ZM129.041 174H131.729V168.12C131.729 165.816 132.929 164.544 134.753 164.544C136.361 164.544 137.297 165.336 137.297 167.808V174H139.985V167.112C139.985 163.584 138.257 162.12 135.689 162.12C134.153 162.12 132.737 162.744 131.777 163.896H131.729V162.288H129.041V174ZM146.748 174.192C148.284 174.192 149.028 173.88 149.724 173.496L149.028 171.168C148.404 171.504 147.756 171.672 147.3 171.672C146.532 171.672 146.172 171.24 146.172 170.04V164.568H149.604V162.288H146.172V158.112L143.484 158.4V162.288H142.044V164.568H143.484V170.304C143.484 172.92 144.732 174.192 146.748 174.192ZM152.033 174H154.721V168.456C154.721 166.536 155.873 165.072 157.913 165.072C158.105 165.072 158.417 165.096 158.729 165.12V162.12H158.393C156.977 162.12 155.681 162.816 154.769 164.04H154.721V162.288H152.033V174ZM166.083 174.192C169.683 174.192 172.227 171.72 172.227 168.168C172.227 164.568 169.683 162.12 166.083 162.12C162.387 162.12 159.939 164.712 159.939 168.168C159.939 171.6 162.387 174.192 166.083 174.192ZM166.083 171.744C164.067 171.744 162.675 170.16 162.675 168.168C162.675 166.128 164.043 164.544 166.083 164.544C168.003 164.544 169.491 166.008 169.491 168.168C169.491 170.28 167.979 171.744 166.083 171.744ZM179.993 174.192C181.673 174.192 182.945 173.544 183.809 172.416H183.833V174H186.401V156.336H183.737V163.728H183.713C182.825 162.672 181.505 162.12 179.969 162.12C176.753 162.12 174.305 164.664 174.305 168.192C174.305 171.816 176.753 174.192 179.993 174.192ZM180.401 171.744C178.433 171.744 177.041 170.28 177.041 168.216C177.041 165.96 178.553 164.544 180.425 164.544C182.441 164.544 183.833 166.128 183.833 168.216C183.833 170.328 182.321 171.744 180.401 171.744ZM194.06 174.192C195.404 174.192 196.7 173.64 197.636 172.512L197.684 172.536V174H200.372V162.288H197.684V167.904C197.684 170.424 196.244 171.744 194.684 171.744C193.076 171.744 192.356 171.024 192.356 168.696V162.288H189.668V169.416C189.668 172.896 191.468 174.192 194.06 174.192ZM209.063 174.192C211.607 174.192 213.119 173.28 214.103 172.008L212.255 170.376C211.655 171.168 210.599 171.744 209.303 171.744C207.239 171.744 205.823 170.304 205.823 168.144C205.823 166.008 207.215 164.544 209.303 164.544C210.575 164.544 211.583 165.096 212.255 165.888L214.079 164.304C212.903 162.864 210.983 162.12 209.159 162.12C205.607 162.12 203.087 164.568 203.087 168.168C203.087 171.744 205.607 174.192 209.063 174.192ZM227.261 168C227.261 164.592 225.029 162.12 221.741 162.12C218.309 162.12 215.861 164.544 215.861 168.144C215.861 171.816 218.381 174.192 221.933 174.192C224.453 174.192 225.917 173.256 226.901 171.984L225.029 170.376C224.429 171.12 223.469 171.744 222.077 171.744C220.253 171.744 218.981 170.736 218.645 169.032H227.189C227.213 168.84 227.261 168.432 227.261 168ZM221.717 164.544C223.253 164.544 224.213 165.504 224.549 166.92H218.693C219.077 165.384 220.229 164.544 221.717 164.544ZM236.455 174H239.143V168.12C239.143 165.816 240.343 164.544 242.167 164.544C243.775 164.544 244.711 165.336 244.711 167.808V174H247.399V167.112C247.399 163.584 245.671 162.12 243.103 162.12C241.567 162.12 240.151 162.744 239.191 163.896H239.143V162.288H236.455V174ZM261.386 168C261.386 164.592 259.154 162.12 255.866 162.12C252.434 162.12 249.986 164.544 249.986 168.144C249.986 171.816 252.506 174.192 256.058 174.192C258.578 174.192 260.042 173.256 261.026 171.984L259.154 170.376C258.554 171.12 257.594 171.744 256.202 171.744C254.378 171.744 253.106 170.736 252.77 169.032H261.314C261.338 168.84 261.386 168.432 261.386 168ZM255.842 164.544C257.378 164.544 258.338 165.504 258.674 166.92H252.818C253.202 165.384 254.354 164.544 255.842 164.544ZM266.286 174H268.71L270.966 166.632H270.99L273.246 174H275.718L279.702 162.288H276.99L274.518 170.064H274.47L272.118 162.288H269.886L267.582 170.064H267.534L265.062 162.288H262.302L266.286 174ZM293.384 174.192C295.016 174.192 296.264 173.568 297.104 172.44L297.152 172.464V174H299.72V162.288H297.032V163.704L296.984 163.728C296.144 162.672 294.848 162.12 293.36 162.12C290.144 162.12 287.72 164.664 287.72 168.192C287.72 171.816 290.144 174.192 293.384 174.192ZM293.816 171.744C291.824 171.744 290.456 170.28 290.456 168.216C290.456 165.96 291.944 164.544 293.816 164.544C295.736 164.544 297.152 166.128 297.152 168.216C297.152 170.328 295.64 171.744 293.816 171.744ZM305.895 174H308.319L310.575 166.632H310.599L312.855 174H315.327L319.311 162.288H316.599L314.127 170.064H314.079L311.727 162.288H309.495L307.191 170.064H307.143L304.671 162.288H301.911L305.895 174ZM331.604 168C331.604 164.592 329.372 162.12 326.084 162.12C322.652 162.12 320.204 164.544 320.204 168.144C320.204 171.816 322.724 174.192 326.276 174.192C328.796 174.192 330.26 173.256 331.244 171.984L329.372 170.376C328.772 171.12 327.812 171.744 326.42 171.744C324.596 171.744 323.324 170.736 322.988 169.032H331.532C331.556 168.84 331.604 168.432 331.604 168ZM326.06 164.544C327.596 164.544 328.556 165.504 328.892 166.92H323.036C323.42 165.384 324.572 164.544 326.06 164.544ZM338.121 174.192C341.097 174.192 342.489 172.608 342.489 170.64C342.489 168.312 340.929 167.856 338.433 166.872C337.305 166.44 336.585 166.032 336.585 165.456C336.585 164.736 337.329 164.448 337.857 164.448C338.769 164.448 339.849 164.808 340.785 165.696L342.129 163.584C340.833 162.528 339.489 162.12 338.001 162.12C335.601 162.12 333.873 163.512 333.873 165.432C333.873 167.736 335.529 168.6 337.449 169.272C338.985 169.8 339.753 170.088 339.753 170.688C339.753 171.384 339.153 171.84 338.121 171.84C336.681 171.84 335.673 171.384 334.737 170.472L333.393 172.488C334.617 173.568 336.225 174.192 338.121 174.192ZM350.606 174.192C354.206 174.192 356.75 171.72 356.75 168.168C356.75 164.568 354.206 162.12 350.606 162.12C346.91 162.12 344.462 164.712 344.462 168.168C344.462 171.6 346.91 174.192 350.606 174.192ZM350.606 171.744C348.59 171.744 347.198 170.16 347.198 168.168C347.198 166.128 348.566 164.544 350.606 164.544C352.526 164.544 354.014 166.008 354.014 168.168C354.014 170.28 352.502 171.744 350.606 171.744ZM359.549 174H362.237V168.168C362.237 165.864 363.437 164.544 365.045 164.544C366.629 164.544 367.373 165.792 367.373 167.904V174H370.061V168.168C370.061 165.864 371.285 164.544 372.797 164.544C374.381 164.544 375.077 165.792 375.077 167.904V174H377.765V167.232C377.765 163.728 376.229 162.12 373.661 162.12C371.933 162.12 370.445 162.792 369.461 164.064H369.413C368.717 162.744 367.493 162.12 365.909 162.12C364.565 162.12 363.221 162.744 362.261 163.896H362.237V162.288H359.549V174ZM391.792 168C391.792 164.592 389.56 162.12 386.272 162.12C382.84 162.12 380.392 164.544 380.392 168.144C380.392 171.816 382.912 174.192 386.464 174.192C388.984 174.192 390.448 173.256 391.432 171.984L389.56 170.376C388.96 171.12 388 171.744 386.608 171.744C384.784 171.744 383.512 170.736 383.176 169.032H391.72C391.744 168.84 391.792 168.432 391.792 168ZM386.248 164.544C387.784 164.544 388.744 165.504 389.08 166.92H383.224C383.608 165.384 384.76 164.544 386.248 164.544ZM401.418 174H404.106V164.568H406.986V162.288H404.106V160.44C404.106 159.168 404.538 158.616 405.354 158.616C405.858 158.616 406.53 158.856 407.298 159.216L407.898 156.96C407.274 156.552 406.266 156.144 404.97 156.144C402.666 156.144 401.418 157.536 401.418 160.152V162.288H400.122V164.568H401.418V174ZM419.706 168C419.706 164.592 417.474 162.12 414.186 162.12C410.754 162.12 408.306 164.544 408.306 168.144C408.306 171.816 410.826 174.192 414.378 174.192C416.898 174.192 418.362 173.256 419.346 171.984L417.474 170.376C416.874 171.12 415.914 171.744 414.522 171.744C412.698 171.744 411.426 170.736 411.09 169.032H419.634C419.658 168.84 419.706 168.432 419.706 168ZM414.162 164.544C415.698 164.544 416.658 165.504 416.994 166.92H411.138C411.522 165.384 412.674 164.544 414.162 164.544ZM427.423 174.192C429.055 174.192 430.303 173.568 431.143 172.44L431.191 172.464V174H433.759V162.288H431.071V163.704L431.023 163.728C430.183 162.672 428.887 162.12 427.399 162.12C424.183 162.12 421.759 164.664 421.759 168.192C421.759 171.816 424.183 174.192 427.423 174.192ZM427.855 171.744C425.863 171.744 424.495 170.28 424.495 168.216C424.495 165.96 425.983 164.544 427.855 164.544C429.775 164.544 431.191 166.128 431.191 168.216C431.191 170.328 429.679 171.744 427.855 171.744ZM440.63 174.192C442.166 174.192 442.91 173.88 443.606 173.496L442.91 171.168C442.286 171.504 441.638 171.672 441.182 171.672C440.414 171.672 440.054 171.24 440.054 170.04V164.568H443.486V162.288H440.054V158.112L437.366 158.4V162.288H435.926V164.568H437.366V170.304C437.366 172.92 438.614 174.192 440.63 174.192ZM450.068 174.192C451.412 174.192 452.708 173.64 453.644 172.512L453.692 172.536V174H456.38V162.288H453.692V167.904C453.692 170.424 452.252 171.744 450.692 171.744C449.084 171.744 448.364 171.024 448.364 168.696V162.288H445.676V169.416C445.676 172.896 447.476 174.192 450.068 174.192ZM459.791 174H462.479V168.456C462.479 166.536 463.631 165.072 465.671 165.072C465.863 165.072 466.175 165.096 466.487 165.12V162.12H466.151C464.735 162.12 463.439 162.816 462.527 164.04H462.479V162.288H459.791V174ZM479.097 168C479.097 164.592 476.865 162.12 473.577 162.12C470.145 162.12 467.697 164.544 467.697 168.144C467.697 171.816 470.217 174.192 473.769 174.192C476.289 174.192 477.753 173.256 478.737 171.984L476.865 170.376C476.265 171.12 475.305 171.744 473.913 171.744C472.089 171.744 470.817 170.736 470.481 169.032H479.025C479.049 168.84 479.097 168.432 479.097 168ZM473.553 164.544C475.089 164.544 476.049 165.504 476.385 166.92H470.529C470.913 165.384 472.065 164.544 473.553 164.544Z" fill="#746E8C"/>
<defs>
<filter id="filter0_ddd" x="0" y="98" width="734" height="168" filterUnits="userSpaceOnUse" color-interpolation-filters="sRGB">
<feFlood flood-opacity="0" result="BackgroundImageFix"/>
<feColorMatrix in="SourceAlpha" type="matrix" values="0 0 0 0 0 0 0 0 0 0 0 0 0 0 0 0 0 0 127 0"/>
<feOffset/>
<feGaussianBlur stdDeviation="0.5"/>
<feColorMatrix type="matrix" values="0 0 0 0 0 0 0 0 0 0 0 0 0 0 0 0 0 0 0.04 0"/>
<feBlend mode="normal" in2="BackgroundImageFix" result="effect1_dropShadow"/>
<feColorMatrix in="SourceAlpha" type="matrix" values="0 0 0 0 0 0 0 0 0 0 0 0 0 0 0 0 0 0 127 0"/>
<feOffset dy="2"/>
<feGaussianBlur stdDeviation="3"/>
<feColorMatrix type="matrix" values="0 0 0 0 0 0 0 0 0 0 0 0 0 0 0 0 0 0 0.04 0"/>
<feBlend mode="normal" in2="effect1_dropShadow" result="effect2_dropShadow"/>
<feColorMatrix in="SourceAlpha" type="matrix" values="0 0 0 0 0 0 0 0 0 0 0 0 0 0 0 0 0 0 127 0"/>
<feOffset dy="16"/>
<feGaussianBlur stdDeviation="12"/>
<feColorMatrix type="matrix" values="0 0 0 0 0 0 0 0 0 0 0 0 0 0 0 0 0 0 0.06 0"/>
<feBlend mode="normal" in2="effect2_dropShadow" result="effect3_dropShadow"/>
<feBlend mode="normal" in="SourceGraphic" in2="effect3_dropShadow" result="shape"/>
</filter>
<filter id="filter1_ddd" x="40" y="238" width="734" height="168" filterUnits="userSpaceOnUse" color-interpolation-filters="sRGB">
<feFlood flood-opacity="0" result="BackgroundImageFix"/>
<feColorMatrix in="SourceAlpha" type="matrix" values="0 0 0 0 0 0 0 0 0 0 0 0 0 0 0 0 0 0 127 0"/>
<feOffset/>
<feGaussianBlur stdDeviation="0.5"/>
<feColorMatrix type="matrix" values="0 0 0 0 0 0 0 0 0 0 0 0 0 0 0 0 0 0 0.04 0"/>
<feBlend mode="normal" in2="BackgroundImageFix" result="effect1_dropShadow"/>
<feColorMatrix in="SourceAlpha" type="matrix" values="0 0 0 0 0 0 0 0 0 0 0 0 0 0 0 0 0 0 127 0"/>
<feOffset dy="2"/>
<feGaussianBlur stdDeviation="3"/>
<feColorMatrix type="matrix" values="0 0 0 0 0 0 0 0 0 0 0 0 0 0 0 0 0 0 0.04 0"/>
<feBlend mode="normal" in2="effect1_dropShadow" result="effect2_dropShadow"/>
<feColorMatrix in="SourceAlpha" type="matrix" values="0 0 0 0 0 0 0 0 0 0 0 0 0 0 0 0 0 0 127 0"/>
<feOffset dy="16"/>
<feGaussianBlur stdDeviation="12"/>
<feColorMatrix type="matrix" values="0 0 0 0 0 0 0 0 0 0 0 0 0 0 0 0 0 0 0.06 0"/>
<feBlend mode="normal" in2="effect2_dropShadow" result="effect3_dropShadow"/>
<feBlend mode="normal" in="SourceGraphic" in2="effect3_dropShadow" result="shape"/>
</filter>
<filter id="filter2_ddd" x="90" y="378" width="734" height="168" filterUnits="userSpaceOnUse" color-interpolation-filters="sRGB">
<feFlood flood-opacity="0" result="BackgroundImageFix"/>
<feColorMatrix in="SourceAlpha" type="matrix" values="0 0 0 0 0 0 0 0 0 0 0 0 0 0 0 0 0 0 127 0"/>
<feOffset/>
<feGaussianBlur stdDeviation="0.5"/>
<feColorMatrix type="matrix" values="0 0 0 0 0 0 0 0 0 0 0 0 0 0 0 0 0 0 0.04 0"/>
<feBlend mode="normal" in2="BackgroundImageFix" result="effect1_dropShadow"/>
<feColorMatrix in="SourceAlpha" type="matrix" values="0 0 0 0 0 0 0 0 0 0 0 0 0 0 0 0 0 0 127 0"/>
<feOffset dy="2"/>
<feGaussianBlur stdDeviation="3"/>
<feColorMatrix type="matrix" values="0 0 0 0 0 0 0 0 0 0 0 0 0 0 0 0 0 0 0.04 0"/>
<feBlend mode="normal" in2="effect1_dropShadow" result="effect2_dropShadow"/>
<feColorMatrix in="SourceAlpha" type="matrix" values="0 0 0 0 0 0 0 0 0 0 0 0 0 0 0 0 0 0 127 0"/>
<feOffset dy="16"/>
<feGaussianBlur stdDeviation="12"/>
<feColorMatrix type="matrix" values="0 0 0 0 0 0 0 0 0 0 0 0 0 0 0 0 0 0 0.06 0"/>
<feBlend mode="normal" in2="effect2_dropShadow" result="effect3_dropShadow"/>
<feBlend mode="normal" in="SourceGraphic" in2="effect3_dropShadow" result="shape"/>
</filter>
</defs>
</svg>
