<svg width="65" height="24" viewBox="0 0 65 24" fill="none" xmlns="http://www.w3.org/2000/svg">
<path d="M6.87102 4.27441C7.51018 4.27441 8.08543 4.35963 8.59676 4.53008C9.10809 4.70052 9.54485 4.88162 9.90704 5.07337C10.3118 5.30773 10.6847 5.57405 11.0256 5.87232L11.5328 4.73113C11.613 4.55057 11.7921 4.4342 11.9897 4.4342H13.8812C14.1573 4.4342 14.3812 4.65806 14.3812 4.9342V22.7496C14.3812 23.0257 14.1573 23.2496 13.8812 23.2496H11.206C10.9299 23.2496 10.706 23.0257 10.706 22.7496V17.8566C10.4077 18.1336 10.0668 18.3786 9.68334 18.5917C9.34245 18.7621 8.93765 18.9219 8.46893 19.0711C8.00021 19.2202 7.46757 19.2948 6.87102 19.2948C5.95488 19.2948 5.08136 19.1137 4.25044 18.7515C3.41953 18.368 2.68449 17.846 2.04533 17.1855C1.42747 16.5038 0.926788 15.7048 0.54329 14.7887C0.181097 13.8725 0 12.8712 0 11.7846C0 10.698 0.181097 9.69665 0.54329 8.78052C0.926788 7.86438 1.42747 7.07608 2.04533 6.41561C2.68449 5.73384 3.41953 5.21185 4.25044 4.84966C5.08136 4.46616 5.95488 4.27441 6.87102 4.27441ZM11.0256 11.7846C11.0256 10.5702 10.674 9.60078 9.97096 8.87639C9.26788 8.15201 8.39436 7.78981 7.35039 7.78981C6.30642 7.78981 5.4329 8.15201 4.72982 8.87639C4.02673 9.60078 3.67519 10.5702 3.67519 11.7846C3.67519 12.999 4.02673 13.9684 4.72982 14.6928C5.4329 15.4172 6.30642 15.7794 7.35039 15.7794C8.39436 15.7794 9.26788 15.4172 9.97096 14.6928C10.674 13.9684 11.0256 12.999 11.0256 11.7846Z" fill="#1C1340"/>
<path d="M20.1387 11.7846C20.1387 12.999 20.4902 13.9684 21.1933 14.6928C21.8964 15.4172 22.7699 15.7794 23.8139 15.7794C24.8578 15.7794 25.7314 15.4172 26.4344 14.6928C27.1375 13.9684 27.4891 12.999 27.4891 11.7846C27.4891 10.5702 27.1375 9.60078 26.4344 8.87639C25.7314 8.15201 24.8578 7.78981 23.8139 7.78981C22.7699 7.78981 21.8964 8.15201 21.1933 8.87639C20.4902 9.60078 20.1387 10.5702 20.1387 11.7846ZM31.1642 11.7846C31.1642 12.8286 30.9618 13.8086 30.557 14.7247C30.1735 15.6196 29.6409 16.4079 28.9591 17.0897C28.2987 17.7714 27.521 18.3147 26.6262 18.7195C25.7527 19.103 24.8152 19.2948 23.8139 19.2948C22.8125 19.2948 21.8644 19.103 20.9696 18.7195C20.0961 18.3147 19.3184 17.7714 18.6366 17.0897C17.9762 16.4079 17.4435 15.6196 17.0387 14.7247C16.6552 13.8086 16.4635 12.8286 16.4635 11.7846C16.4635 10.7406 16.6552 9.77122 17.0387 8.87639C17.4435 7.96026 17.9762 7.1613 18.6366 6.47953C19.3184 5.79775 20.0961 5.26512 20.9696 4.88162C21.8644 4.47681 22.8125 4.27441 23.8139 4.27441C24.8152 4.27441 25.7527 4.47681 26.6262 4.88162C27.521 5.26512 28.2987 5.79775 28.9591 6.47953C29.6409 7.1613 30.1735 7.96026 30.557 8.87639C30.9618 9.77122 31.1642 10.7406 31.1642 11.7846Z" fill="#1C1340"/>
<path d="M39.2986 4.27441C40.1295 4.27441 40.8965 4.42355 41.5996 4.72183C42.3027 4.9988 42.9099 5.39295 43.4212 5.90428C43.9326 6.41561 44.3267 7.02282 44.6037 7.7259C44.902 8.42898 45.0511 9.19598 45.0511 10.0269V18.635C45.0511 18.9111 44.8272 19.135 44.5511 19.135H42.6596C42.462 19.135 42.2829 19.0186 42.2027 18.838L41.6955 17.6969C41.3546 17.9951 40.9817 18.2615 40.5769 18.4958C40.2147 18.7089 39.778 18.9006 39.2667 19.0711C38.7553 19.2202 38.1801 19.2948 37.5409 19.2948C35.943 19.2948 34.7179 18.9113 33.8657 18.1443C33.0135 17.356 32.5874 16.3546 32.5874 15.1402C32.5874 14.4158 32.7259 13.7553 33.0028 13.1588C33.3011 12.5409 33.7911 12.019 34.4729 11.5928C35.1547 11.1454 36.0495 10.8045 37.1574 10.5702C38.2866 10.3145 39.6928 10.1867 41.3759 10.1867C41.3759 9.37707 41.1522 8.74856 40.7048 8.30115C40.2787 7.85373 39.7034 7.63002 38.979 7.63002C38.489 7.63002 38.0948 7.71525 37.7966 7.88569C37.5196 8.05613 37.2959 8.23723 37.1255 8.42898C37.0201 8.5578 36.934 8.69628 36.8672 8.84441C36.7703 9.05935 36.5735 9.22793 36.3377 9.22793H33.6332C33.3324 9.22793 33.0979 8.96363 33.1624 8.66987C33.2667 8.19449 33.4266 7.74135 33.642 7.31044C33.9616 6.71389 34.3877 6.1919 34.9203 5.74449C35.453 5.29707 36.0815 4.94553 36.8059 4.68987C37.5516 4.4129 38.3825 4.27441 39.2986 4.27441ZM38.1801 16.4185C39.1388 16.4185 39.9058 16.1416 40.4811 15.5876C41.0776 15.0124 41.3759 14.2773 41.3759 13.3825V12.7433C40.2893 12.7433 39.4158 12.7966 38.7553 12.9031C38.0949 12.9883 37.5729 13.1268 37.1894 13.3186C36.8272 13.489 36.5822 13.7021 36.4543 13.9577C36.3265 14.2134 36.2626 14.501 36.2626 14.8206C36.2626 15.2254 36.4437 15.5983 36.8059 15.9392C37.1681 16.2587 37.6261 16.4185 38.1801 16.4185Z" fill="#1C1340"/>
<path d="M51.4302 18.635C51.4302 18.9111 51.2064 19.135 50.9302 19.135H48.2551C47.9789 19.135 47.7551 18.9111 47.7551 18.635V0.500001C47.7551 0.223858 47.9789 0 48.2551 0H50.9302C51.2064 0 51.4302 0.223858 51.4302 0.5V18.635Z" fill="#1C1340"/>
<path d="M56.5899 14.501C56.833 14.501 57.0343 14.679 57.1213 14.9061C57.2431 15.2243 57.4405 15.5047 57.7135 15.7474C58.097 16.0883 58.6084 16.2587 59.2475 16.2587C59.8867 16.2587 60.3874 16.0989 60.7496 15.7794C61.1331 15.4385 61.3248 15.0656 61.3248 14.6608C61.3248 14.3199 61.1331 14.0536 60.7496 13.8619C60.3874 13.6701 59.9293 13.4997 59.3754 13.3505C58.8214 13.1801 58.2142 13.0097 57.5537 12.8392C56.9146 12.6688 56.318 12.4238 55.7641 12.1042C55.2101 11.7633 54.7414 11.3372 54.3579 10.8258C53.9957 10.2932 53.8146 9.60078 53.8146 8.74856C53.8146 8.15201 53.9318 7.58741 54.1662 7.05478C54.4218 6.50083 54.784 6.02146 55.2527 5.61666C55.7215 5.21185 56.2754 4.89227 56.9146 4.65791C57.5537 4.40224 58.2781 4.27441 59.0877 4.27441C60.8561 4.27441 62.209 4.70052 63.1464 5.55274C63.9612 6.27699 64.4913 7.15511 64.7368 8.1871C64.8067 8.48129 64.5715 8.74856 64.2691 8.74856H61.7089C61.4824 8.74856 61.2891 8.5914 61.1714 8.39785C61.0482 8.19517 60.8649 7.99249 60.6217 7.78981C60.2595 7.47023 59.8015 7.31044 59.2475 7.31044C58.6936 7.31044 58.2568 7.44893 57.9372 7.7259C57.639 8.00287 57.4898 8.34376 57.4898 8.74856C57.4898 9.08945 57.6709 9.35577 58.0331 9.54752C58.4166 9.73927 58.8853 9.92036 59.4393 10.0908C59.9932 10.2399 60.5898 10.4104 61.2289 10.6021C61.8894 10.7726 62.4966 11.0282 63.0506 11.3691C63.6045 11.71 64.0626 12.1574 64.4248 12.7114C64.8083 13.244 65 13.9471 65 14.8206C65 15.4172 64.8722 15.9924 64.6165 16.5464C64.3608 17.079 63.9986 17.5477 63.5299 17.9525C63.0612 18.3573 62.486 18.6876 61.8042 18.9432C61.1437 19.1776 60.398 19.2948 59.5671 19.2948C57.6496 19.2948 56.1902 18.858 55.1888 17.9845C54.3357 17.2241 53.7974 16.2457 53.5739 15.0494C53.5195 14.7581 53.7528 14.501 54.0492 14.501H56.5899Z" fill="#1C1340"/>
</svg>
