<svg width="682" height="695" viewBox="0 0 682 695" fill="none" xmlns="http://www.w3.org/2000/svg">
<rect opacity="0.4" width="682" height="620" rx="8" fill="#56CCF2"/>
<g filter="url(#filter0_ddd)">
<rect x="80" y="80" width="522" height="99" rx="8" fill="white"/>
</g>
<path fill-rule="evenodd" clip-rule="evenodd" d="M134.614 109.091L112.414 110.725C110.624 110.88 110 112.047 110 113.446V137.709C110 138.799 110.389 139.731 111.324 140.976L116.543 147.742C117.4 148.831 118.179 149.064 119.815 148.986L145.596 147.431C147.776 147.276 148.4 146.264 148.4 144.553V117.257C148.4 116.372 148.05 116.117 147.018 115.364C146.961 115.322 146.902 115.279 146.841 115.235L139.755 110.258C138.041 109.014 137.34 108.858 134.614 109.091ZM120.4 116.809C118.295 116.951 117.817 116.983 116.622 116.013L113.582 113.602C113.272 113.29 113.427 112.902 114.206 112.824L135.548 111.269C137.339 111.113 138.274 111.736 138.975 112.28L142.636 114.925C142.792 115.002 143.181 115.468 142.713 115.468L120.672 116.791L120.4 116.809ZM117.945 144.32V121.146C117.945 120.135 118.257 119.668 119.191 119.589L144.504 118.112C145.363 118.035 145.752 118.579 145.752 119.589V142.608C145.752 143.62 145.595 144.476 144.193 144.553L119.97 145.954C118.568 146.031 117.945 145.565 117.945 144.32ZM141.858 122.389C142.013 123.089 141.858 123.789 141.156 123.868L139.989 124.101V141.209C138.975 141.753 138.041 142.064 137.262 142.064C136.015 142.064 135.703 141.675 134.769 140.509L127.135 128.533V140.121L129.551 140.665C129.551 140.665 129.551 142.064 127.602 142.064L122.229 142.376C122.073 142.064 122.229 141.287 122.774 141.132L124.176 140.743V125.423L122.229 125.267C122.073 124.567 122.462 123.556 123.553 123.478L129.317 123.09L137.262 135.222V124.489L135.237 124.257C135.081 123.401 135.703 122.779 136.482 122.701L141.858 122.389Z" fill="black"/>
<path d="M171.088 138H173.992V131.928H176.92C180.592 131.928 183.088 130.176 183.088 126.48C183.088 123.312 181.336 120.96 177.256 120.96H171.088V138ZM173.992 129.312V123.552H176.848C178.936 123.552 180.088 124.632 180.088 126.432C180.088 128.112 179.008 129.312 176.632 129.312H173.992ZM185.846 138H188.534V132.456C188.534 130.536 189.686 129.072 191.726 129.072C191.918 129.072 192.23 129.096 192.542 129.12V126.12H192.206C190.79 126.12 189.494 126.816 188.582 128.04H188.534V126.288H185.846V138ZM199.895 138.192C203.495 138.192 206.039 135.72 206.039 132.168C206.039 128.568 203.495 126.12 199.895 126.12C196.199 126.12 193.751 128.712 193.751 132.168C193.751 135.6 196.199 138.192 199.895 138.192ZM199.895 135.744C197.879 135.744 196.487 134.16 196.487 132.168C196.487 130.128 197.855 128.544 199.895 128.544C201.815 128.544 203.303 130.008 203.303 132.168C203.303 134.28 201.791 135.744 199.895 135.744ZM210.086 124.56C211.094 124.56 211.91 123.744 211.91 122.76C211.91 121.8 211.094 120.984 210.086 120.984C209.078 120.984 208.286 121.8 208.286 122.76C208.286 123.744 209.078 124.56 210.086 124.56ZM208.19 142.944C210.014 142.944 211.454 141.528 211.454 138.792V126.288H208.766V138.792C208.766 139.968 208.334 140.52 207.59 140.52C207.23 140.52 206.702 140.4 206.366 140.184L205.91 142.512C206.798 142.872 207.35 142.944 208.19 142.944ZM225.519 132C225.519 128.592 223.287 126.12 219.999 126.12C216.567 126.12 214.119 128.544 214.119 132.144C214.119 135.816 216.639 138.192 220.191 138.192C222.711 138.192 224.175 137.256 225.159 135.984L223.287 134.376C222.687 135.12 221.727 135.744 220.335 135.744C218.511 135.744 217.239 134.736 216.903 133.032H225.447C225.471 132.84 225.519 132.432 225.519 132ZM219.975 128.544C221.511 128.544 222.471 129.504 222.807 130.92H216.951C217.335 129.384 218.487 128.544 219.975 128.544ZM233.571 138.192C236.115 138.192 237.627 137.28 238.611 136.008L236.763 134.376C236.163 135.168 235.107 135.744 233.811 135.744C231.747 135.744 230.331 134.304 230.331 132.144C230.331 130.008 231.723 128.544 233.811 128.544C235.083 128.544 236.091 129.096 236.763 129.888L238.587 128.304C237.411 126.864 235.491 126.12 233.667 126.12C230.115 126.12 227.595 128.568 227.595 132.168C227.595 135.744 230.115 138.192 233.571 138.192ZM244.545 138.192C246.081 138.192 246.825 137.88 247.521 137.496L246.825 135.168C246.201 135.504 245.553 135.672 245.097 135.672C244.329 135.672 243.969 135.24 243.969 134.04V128.568H247.401V126.288H243.969V122.112L241.281 122.4V126.288H239.841V128.568H241.281V134.304C241.281 136.92 242.529 138.192 244.545 138.192ZM262.66 138.192C265.924 138.192 268.348 135.816 268.348 132.192C268.348 128.664 265.924 126.12 262.684 126.12C261.148 126.12 259.876 126.648 258.964 127.68H258.94V120.336H256.252V138H258.82V136.44H258.868C259.732 137.568 260.98 138.192 262.66 138.192ZM262.252 135.744C260.332 135.744 258.82 134.328 258.82 132.216C258.82 130.128 260.212 128.544 262.228 128.544C264.1 128.544 265.612 129.96 265.612 132.216C265.612 134.28 264.22 135.744 262.252 135.744ZM271.158 138H273.846V132.456C273.846 130.536 274.998 129.072 277.038 129.072C277.23 129.072 277.542 129.096 277.854 129.12V126.12H277.518C276.102 126.12 274.806 126.816 273.894 128.04H273.846V126.288H271.158V138ZM281.6 124.56C282.608 124.56 283.424 123.744 283.424 122.76C283.424 121.8 282.608 120.984 281.6 120.984C280.592 120.984 279.8 121.8 279.8 122.76C279.8 123.744 280.592 124.56 281.6 124.56ZM280.256 138H282.944V126.288H280.256V138ZM297.331 132C297.331 128.592 295.099 126.12 291.811 126.12C288.379 126.12 285.931 128.544 285.931 132.144C285.931 135.816 288.451 138.192 292.003 138.192C294.523 138.192 295.987 137.256 296.971 135.984L295.099 134.376C294.499 135.12 293.539 135.744 292.147 135.744C290.323 135.744 289.051 134.736 288.715 133.032H297.259C297.283 132.84 297.331 132.432 297.331 132ZM291.787 128.544C293.323 128.544 294.283 129.504 294.619 130.92H288.763C289.147 129.384 290.299 128.544 291.787 128.544ZM300.325 138H303.013V128.568H305.893V126.288H303.013V124.44C303.013 123.168 303.445 122.616 304.261 122.616C304.765 122.616 305.437 122.856 306.205 123.216L306.805 120.96C306.181 120.552 305.173 120.144 303.877 120.144C301.573 120.144 300.325 121.536 300.325 124.152V126.288H299.029V128.568H300.325V138Z" fill="#746E8C"/>
<g filter="url(#filter1_ddd)">
<rect x="80" y="199" width="522" height="99" rx="8" fill="white"/>
</g>
<path d="M171.088 257H176.584C182.056 257 185.368 253.52 185.368 248.504C185.368 243.464 181.912 239.96 176.512 239.96H171.088V257ZM173.992 254.408V242.552H176.56C179.992 242.552 182.368 245.048 182.368 248.504C182.368 251.888 180.016 254.408 176.416 254.408H173.992ZM199.128 251C199.128 247.592 196.896 245.12 193.608 245.12C190.176 245.12 187.728 247.544 187.728 251.144C187.728 254.816 190.248 257.192 193.8 257.192C196.32 257.192 197.784 256.256 198.768 254.984L196.896 253.376C196.296 254.12 195.336 254.744 193.944 254.744C192.12 254.744 190.848 253.736 190.512 252.032H199.056C199.08 251.84 199.128 251.432 199.128 251ZM193.584 247.544C195.12 247.544 196.08 248.504 196.416 249.92H190.56C190.944 248.384 192.096 247.544 193.584 247.544ZM205.644 257.192C208.62 257.192 210.012 255.608 210.012 253.64C210.012 251.312 208.452 250.856 205.956 249.872C204.828 249.44 204.108 249.032 204.108 248.456C204.108 247.736 204.852 247.448 205.38 247.448C206.292 247.448 207.372 247.808 208.308 248.696L209.652 246.584C208.356 245.528 207.012 245.12 205.524 245.12C203.124 245.12 201.396 246.512 201.396 248.432C201.396 250.736 203.052 251.6 204.972 252.272C206.508 252.8 207.276 253.088 207.276 253.688C207.276 254.384 206.676 254.84 205.644 254.84C204.204 254.84 203.196 254.384 202.26 253.472L200.916 255.488C202.14 256.568 203.748 257.192 205.644 257.192ZM214.194 243.56C215.202 243.56 216.018 242.744 216.018 241.76C216.018 240.8 215.202 239.984 214.194 239.984C213.186 239.984 212.394 240.8 212.394 241.76C212.394 242.744 213.186 243.56 214.194 243.56ZM212.85 257H215.538V245.288H212.85V257ZM224.453 261.92C228.797 261.92 230.429 259.352 230.429 255.8V245.288H227.741V246.536H227.693C226.709 245.6 225.389 245.12 224.045 245.12C220.805 245.12 218.477 247.592 218.477 251.024C218.477 254.504 220.925 256.808 224.189 256.808C225.629 256.808 226.853 256.28 227.741 255.392H227.789V256.616C227.789 258.176 226.613 259.496 224.309 259.496C222.629 259.496 221.597 259.016 220.325 258.344L219.677 260.696C220.997 261.488 222.701 261.92 224.453 261.92ZM224.549 254.336C222.653 254.336 221.213 253.04 221.213 250.952C221.213 248.96 222.557 247.568 224.549 247.568C226.421 247.568 227.861 248.912 227.861 250.904C227.861 252.896 226.493 254.336 224.549 254.336ZM233.799 257H236.487V251.12C236.487 248.816 237.687 247.544 239.511 247.544C241.119 247.544 242.055 248.336 242.055 250.808V257H244.743V250.112C244.743 246.584 243.015 245.12 240.447 245.12C238.911 245.12 237.495 245.744 236.535 246.896H236.487V245.288H233.799V257ZM251.769 257.192C254.745 257.192 256.137 255.608 256.137 253.64C256.137 251.312 254.577 250.856 252.081 249.872C250.953 249.44 250.233 249.032 250.233 248.456C250.233 247.736 250.977 247.448 251.505 247.448C252.417 247.448 253.497 247.808 254.433 248.696L255.777 246.584C254.481 245.528 253.137 245.12 251.649 245.12C249.249 245.12 247.521 246.512 247.521 248.432C247.521 250.736 249.177 251.6 251.097 252.272C252.633 252.8 253.401 253.088 253.401 253.688C253.401 254.384 252.801 254.84 251.769 254.84C250.329 254.84 249.321 254.384 248.385 253.472L247.041 255.488C248.265 256.568 249.873 257.192 251.769 257.192Z" fill="#746E8C"/>
<g clip-path="url(#clip0)">
<path d="M117.71 231.215L128.96 230L140.21 231.215L148.919 243.16L128.96 266.905L109 243.16L117.71 231.215Z" fill="#FDB300"/>
<path d="M117.085 243.16L128.96 266.905L109 243.16H117.085Z" fill="#EA6C00"/>
<path d="M140.835 243.16L128.96 266.905L148.919 243.16H140.835Z" fill="#EA6C00"/>
<path d="M117.084 243.16H140.835L128.959 266.905L117.084 243.16Z" fill="#FDAD00"/>
<path d="M128.959 230L117.709 231.215L117.084 243.16L128.959 230Z" fill="#FDD231"/>
<path d="M128.96 230L140.21 231.215L140.835 243.16L128.96 230Z" fill="#FDD231"/>
<path d="M148.919 243.159L140.209 231.215L140.834 243.159H148.919Z" fill="#FDAD00"/>
<path d="M109 243.159L117.71 231.215L117.085 243.159H109Z" fill="#FDAD00"/>
<path d="M128.959 230L117.084 243.16H140.835L128.959 230Z" fill="#FEEEB7"/>
</g>
<g filter="url(#filter2_ddd)">
<rect x="80" y="318" width="522" height="99" rx="8" fill="white"/>
</g>
<path d="M178.912 376.144C181.912 376.144 184.168 374.752 185.632 372.928L183.496 371.104C182.416 372.448 180.832 373.432 178.912 373.432C175.672 373.432 173.344 371.032 173.344 367.528C173.344 363.928 175.624 361.504 178.864 361.504C180.664 361.504 182.176 362.272 183.448 363.832L185.584 362.032C183.808 359.848 181.36 358.768 178.864 358.768C173.392 358.768 170.32 362.68 170.32 367.528C170.32 373.12 174.28 376.144 178.912 376.144ZM192.388 376.192C193.732 376.192 195.028 375.64 195.964 374.512L196.012 374.536V376H198.7V364.288H196.012V369.904C196.012 372.424 194.572 373.744 193.012 373.744C191.404 373.744 190.684 373.024 190.684 370.696V364.288H187.996V371.416C187.996 374.896 189.796 376.192 192.388 376.192ZM205.855 376.192C208.831 376.192 210.223 374.608 210.223 372.64C210.223 370.312 208.663 369.856 206.167 368.872C205.039 368.44 204.319 368.032 204.319 367.456C204.319 366.736 205.063 366.448 205.591 366.448C206.503 366.448 207.583 366.808 208.519 367.696L209.863 365.584C208.567 364.528 207.223 364.12 205.735 364.12C203.335 364.12 201.607 365.512 201.607 367.432C201.607 369.736 203.263 370.6 205.183 371.272C206.719 371.8 207.487 372.088 207.487 372.688C207.487 373.384 206.887 373.84 205.855 373.84C204.415 373.84 203.407 373.384 202.471 372.472L201.127 374.488C202.351 375.568 203.959 376.192 205.855 376.192ZM216.373 376.192C217.909 376.192 218.653 375.88 219.349 375.496L218.653 373.168C218.029 373.504 217.381 373.672 216.925 373.672C216.157 373.672 215.797 373.24 215.797 372.04V366.568H219.229V364.288H215.797V360.112L213.109 360.4V364.288H211.669V366.568H213.109V372.304C213.109 374.92 214.357 376.192 216.373 376.192ZM226.544 376.192C230.144 376.192 232.688 373.72 232.688 370.168C232.688 366.568 230.144 364.12 226.544 364.12C222.848 364.12 220.4 366.712 220.4 370.168C220.4 373.6 222.848 376.192 226.544 376.192ZM226.544 373.744C224.528 373.744 223.136 372.16 223.136 370.168C223.136 368.128 224.504 366.544 226.544 366.544C228.464 366.544 229.952 368.008 229.952 370.168C229.952 372.28 228.44 373.744 226.544 373.744ZM235.486 376H238.174V370.168C238.174 367.864 239.374 366.544 240.982 366.544C242.566 366.544 243.31 367.792 243.31 369.904V376H245.998V370.168C245.998 367.864 247.222 366.544 248.734 366.544C250.318 366.544 251.014 367.792 251.014 369.904V376H253.702V369.232C253.702 365.728 252.166 364.12 249.598 364.12C247.87 364.12 246.382 364.792 245.398 366.064H245.35C244.654 364.744 243.43 364.12 241.846 364.12C240.502 364.12 239.158 364.744 238.198 365.896H238.174V364.288H235.486V376ZM267.729 370C267.729 366.592 265.497 364.12 262.209 364.12C258.777 364.12 256.329 366.544 256.329 370.144C256.329 373.816 258.849 376.192 262.401 376.192C264.921 376.192 266.385 375.256 267.369 373.984L265.497 372.376C264.897 373.12 263.937 373.744 262.545 373.744C260.721 373.744 259.449 372.736 259.113 371.032H267.657C267.681 370.84 267.729 370.432 267.729 370ZM262.185 366.544C263.721 366.544 264.681 367.504 265.017 368.92H259.161C259.545 367.384 260.697 366.544 262.185 366.544ZM270.502 376H273.19V370.456C273.19 368.536 274.342 367.072 276.382 367.072C276.574 367.072 276.886 367.096 277.198 367.12V364.12H276.862C275.446 364.12 274.15 364.816 273.238 366.04H273.19V364.288H270.502V376ZM286.286 376H288.974V366.568H291.854V364.288H288.974V362.44C288.974 361.168 289.406 360.616 290.222 360.616C290.726 360.616 291.398 360.856 292.166 361.216L292.766 358.96C292.142 358.552 291.134 358.144 289.838 358.144C287.534 358.144 286.286 359.536 286.286 362.152V364.288H284.99V366.568H286.286V376ZM304.573 370C304.573 366.592 302.341 364.12 299.053 364.12C295.621 364.12 293.173 366.544 293.173 370.144C293.173 373.816 295.693 376.192 299.245 376.192C301.765 376.192 303.229 375.256 304.213 373.984L302.341 372.376C301.741 373.12 300.781 373.744 299.389 373.744C297.565 373.744 296.293 372.736 295.957 371.032H304.501C304.525 370.84 304.573 370.432 304.573 370ZM299.029 366.544C300.565 366.544 301.525 367.504 301.861 368.92H296.005C296.389 367.384 297.541 366.544 299.029 366.544ZM318.05 370C318.05 366.592 315.818 364.12 312.53 364.12C309.098 364.12 306.65 366.544 306.65 370.144C306.65 373.816 309.17 376.192 312.722 376.192C315.242 376.192 316.706 375.256 317.69 373.984L315.818 372.376C315.218 373.12 314.258 373.744 312.866 373.744C311.042 373.744 309.77 372.736 309.434 371.032H317.978C318.002 370.84 318.05 370.432 318.05 370ZM312.506 366.544C314.042 366.544 315.002 367.504 315.338 368.92H309.482C309.866 367.384 311.018 366.544 312.506 366.544ZM325.79 376.192C327.47 376.192 328.742 375.544 329.606 374.416H329.63V376H332.198V358.336H329.534V365.728H329.51C328.622 364.672 327.302 364.12 325.766 364.12C322.55 364.12 320.102 366.664 320.102 370.192C320.102 373.816 322.55 376.192 325.79 376.192ZM326.198 373.744C324.23 373.744 322.838 372.28 322.838 370.216C322.838 367.96 324.35 366.544 326.222 366.544C328.238 366.544 329.63 368.128 329.63 370.216C329.63 372.328 328.118 373.744 326.198 373.744ZM342.113 376.192C345.377 376.192 347.801 373.816 347.801 370.192C347.801 366.664 345.377 364.12 342.137 364.12C340.601 364.12 339.329 364.648 338.417 365.68H338.393V358.336H335.705V376H338.273V374.44H338.321C339.185 375.568 340.433 376.192 342.113 376.192ZM341.705 373.744C339.785 373.744 338.273 372.328 338.273 370.216C338.273 368.128 339.665 366.544 341.681 366.544C343.553 366.544 345.065 367.96 345.065 370.216C345.065 372.28 343.673 373.744 341.705 373.744ZM355.555 376.192C357.187 376.192 358.435 375.568 359.275 374.44L359.323 374.464V376H361.891V364.288H359.203V365.704L359.155 365.728C358.315 364.672 357.019 364.12 355.531 364.12C352.315 364.12 349.891 366.664 349.891 370.192C349.891 373.816 352.315 376.192 355.555 376.192ZM355.987 373.744C353.995 373.744 352.627 372.28 352.627 370.216C352.627 367.96 354.115 366.544 355.987 366.544C357.907 366.544 359.323 368.128 359.323 370.216C359.323 372.328 357.811 373.744 355.987 373.744ZM370.563 376.192C373.107 376.192 374.619 375.28 375.603 374.008L373.755 372.376C373.155 373.168 372.099 373.744 370.803 373.744C368.739 373.744 367.323 372.304 367.323 370.144C367.323 368.008 368.715 366.544 370.803 366.544C372.075 366.544 373.083 367.096 373.755 367.888L375.579 366.304C374.403 364.864 372.483 364.12 370.659 364.12C367.107 364.12 364.587 366.568 364.587 370.168C364.587 373.744 367.107 376.192 370.563 376.192ZM378.057 376H380.745V372.904L382.641 370.84L385.785 376H388.809L384.513 368.992L388.737 364.288H385.545L380.793 369.712L380.745 369.688V358.336H378.057V376Z" fill="#746E8C"/>
<path d="M144 347H114C111.239 347 109 349.239 109 352V382C109 384.761 111.239 387 114 387H144C146.761 387 149 384.761 149 382V352C149 349.239 146.761 347 144 347ZM134.332 354.334C134.332 353.598 134.93 353 135.666 353C136.403 353 137 353.598 137 354.334V372.147C137 372.884 136.403 373.481 135.666 373.481C134.93 373.481 134.332 372.884 134.332 372.147V354.334ZM127.666 353.659C127.666 352.922 128.264 352.325 129 352.325C129.736 352.325 130.334 352.922 130.334 353.659V372.992C130.334 373.729 129.736 374.326 129 374.326C128.264 374.326 127.666 373.729 127.666 372.992V353.659ZM121 354.334C121 353.598 121.597 353 122.334 353C123.07 353 123.666 353.598 123.666 354.334V372.147C123.666 372.884 123.07 373.481 122.334 373.481C121.597 373.481 121 372.884 121 372.147V354.334ZM114.334 357C114.334 356.264 114.93 355.666 115.666 355.666C116.402 355.666 117 356.264 117 357V368.993C117 369.729 116.402 370.326 115.666 370.326C114.93 370.326 114.334 369.729 114.334 368.993V357ZM143.201 377.338C142.996 377.515 138.056 381.659 129 381.659C119.944 381.659 115.006 377.515 114.799 377.338C114.24 376.859 114.174 376.017 114.654 375.457C115.131 374.9 115.971 374.834 116.53 375.311C116.607 375.376 121.019 378.993 128.999 378.993C137.079 378.993 141.421 375.35 141.464 375.314C142.021 374.834 142.865 374.899 143.342 375.457C143.825 376.017 143.76 376.859 143.201 377.338ZM143.666 368.993C143.666 369.729 143.069 370.326 142.333 370.326C141.596 370.326 141 369.729 141 368.993V357C141 356.264 141.596 355.666 142.333 355.666C143.069 355.666 143.666 356.264 143.666 357V368.993Z" fill="#286EFA"/>
<g filter="url(#filter3_ddd)">
<rect x="80" y="437" width="522" height="99" rx="8" fill="white"/>
</g>
<path d="M169.552 495H172.576L173.848 491.328H180.808L182.104 495H185.128L178.744 477.96H175.912L169.552 495ZM174.736 488.832L177.304 481.44H177.352L179.944 488.832H174.736ZM187.776 495H190.68V488.928H193.608C197.28 488.928 199.776 487.176 199.776 483.48C199.776 480.312 198.023 477.96 193.944 477.96H187.776V495ZM190.68 486.312V480.552H193.536C195.624 480.552 196.776 481.632 196.776 483.432C196.776 485.112 195.696 486.312 193.32 486.312H190.68ZM202.965 495H205.869V477.96H202.965V495ZM226.948 489C226.948 485.592 224.716 483.12 221.428 483.12C217.996 483.12 215.548 485.544 215.548 489.144C215.548 492.816 218.068 495.192 221.62 495.192C224.14 495.192 225.604 494.256 226.588 492.984L224.716 491.376C224.116 492.12 223.156 492.744 221.764 492.744C219.94 492.744 218.668 491.736 218.332 490.032H226.876C226.9 489.84 226.948 489.432 226.948 489ZM221.404 485.544C222.94 485.544 223.9 486.504 224.236 487.92H218.38C218.764 486.384 219.916 485.544 221.404 485.544ZM229.721 495H232.409V489.12C232.409 486.816 233.609 485.544 235.433 485.544C237.041 485.544 237.977 486.336 237.977 488.808V495H240.665V488.112C240.665 484.584 238.937 483.12 236.369 483.12C234.833 483.12 233.417 483.744 232.457 484.896H232.409V483.288H229.721V495ZM248.915 495.192C250.595 495.192 251.867 494.544 252.731 493.416H252.755V495H255.323V477.336H252.659V484.728H252.635C251.747 483.672 250.427 483.12 248.891 483.12C245.675 483.12 243.227 485.664 243.227 489.192C243.227 492.816 245.675 495.192 248.915 495.192ZM249.323 492.744C247.355 492.744 245.963 491.28 245.963 489.216C245.963 486.96 247.475 485.544 249.347 485.544C251.363 485.544 252.755 487.128 252.755 489.216C252.755 491.328 251.243 492.744 249.323 492.744ZM258.83 499.752H261.518V493.584L261.566 493.56C262.43 494.616 263.654 495.192 265.238 495.192C268.502 495.192 270.926 492.816 270.926 489.192C270.926 485.664 268.502 483.12 265.262 483.12C263.726 483.12 262.43 483.672 261.566 484.68H261.518V483.288H258.83V499.752ZM264.83 492.744C262.91 492.744 261.398 491.328 261.398 489.216C261.398 487.128 262.79 485.544 264.806 485.544C266.678 485.544 268.19 486.96 268.19 489.216C268.19 491.28 266.798 492.744 264.83 492.744ZM279.184 495.192C282.784 495.192 285.328 492.72 285.328 489.168C285.328 485.568 282.784 483.12 279.184 483.12C275.488 483.12 273.04 485.712 273.04 489.168C273.04 492.6 275.488 495.192 279.184 495.192ZM279.184 492.744C277.168 492.744 275.776 491.16 275.776 489.168C275.776 487.128 277.144 485.544 279.184 485.544C281.104 485.544 282.592 487.008 282.592 489.168C282.592 491.28 281.08 492.744 279.184 492.744ZM289.639 481.56C290.647 481.56 291.463 480.744 291.463 479.76C291.463 478.8 290.647 477.984 289.639 477.984C288.631 477.984 287.839 478.8 287.839 479.76C287.839 480.744 288.631 481.56 289.639 481.56ZM288.295 495H290.983V483.288H288.295V495ZM294.666 495H297.354V489.12C297.354 486.816 298.554 485.544 300.378 485.544C301.986 485.544 302.922 486.336 302.922 488.808V495H305.61V488.112C305.61 484.584 303.882 483.12 301.314 483.12C299.778 483.12 298.362 483.744 297.402 484.896H297.354V483.288H294.666V495ZM312.373 495.192C313.909 495.192 314.653 494.88 315.349 494.496L314.653 492.168C314.029 492.504 313.381 492.672 312.925 492.672C312.157 492.672 311.797 492.24 311.797 491.04V485.568H315.229V483.288H311.797V479.112L309.109 479.4V483.288H307.669V485.568H309.109V491.304C309.109 493.92 310.357 495.192 312.373 495.192ZM321.402 495.192C324.378 495.192 325.77 493.608 325.77 491.64C325.77 489.312 324.21 488.856 321.714 487.872C320.586 487.44 319.866 487.032 319.866 486.456C319.866 485.736 320.61 485.448 321.138 485.448C322.05 485.448 323.13 485.808 324.066 486.696L325.41 484.584C324.114 483.528 322.77 483.12 321.282 483.12C318.882 483.12 317.154 484.512 317.154 486.432C317.154 488.736 318.81 489.6 320.73 490.272C322.266 490.8 323.034 491.088 323.034 491.688C323.034 492.384 322.434 492.84 321.402 492.84C319.962 492.84 318.954 492.384 318.018 491.472L316.674 493.488C317.898 494.568 319.506 495.192 321.402 495.192Z" fill="#746E8C"/>
<path d="M148.927 488.945L146.687 482.099L142.253 468.521C142.202 468.369 142.104 468.238 141.974 468.144C141.843 468.051 141.687 468.001 141.526 468.001C141.365 468.001 141.208 468.051 141.078 468.144C140.948 468.238 140.85 468.369 140.799 468.521L136.365 482.091H121.633L117.2 468.521C117.149 468.369 117.051 468.237 116.921 468.144C116.791 468.05 116.634 468 116.473 468C116.313 468 116.156 468.05 116.026 468.144C115.895 468.237 115.798 468.369 115.747 468.521L111.32 482.091L109.08 488.945C108.98 489.249 108.98 489.577 109.079 489.881C109.178 490.186 109.372 490.451 109.632 490.64L129.001 504.631L148.367 490.64C148.628 490.452 148.823 490.187 148.924 489.883C149.024 489.578 149.025 489.25 148.927 488.945Z" fill="#FC6D26"/>
<path d="M128.999 504.62L136.365 482.09H121.638L128.999 504.62Z" fill="#E24329"/>
<path d="M129 504.62L121.632 482.09H111.324L129 504.62Z" fill="#FC6D26"/>
<path d="M111.315 482.097L109.075 488.942C108.975 489.247 108.975 489.575 109.074 489.879C109.173 490.183 109.367 490.449 109.627 490.637L129 504.63L111.315 482.097Z" fill="#FCA326"/>
<path d="M111.319 482.097H121.64L117.198 468.528C117.147 468.376 117.05 468.245 116.919 468.151C116.789 468.058 116.632 468.008 116.471 468.008C116.311 468.008 116.154 468.058 116.023 468.151C115.893 468.245 115.795 468.376 115.744 468.528L111.319 482.097Z" fill="#E24329"/>
<path d="M128.999 504.62L136.364 482.09H146.69L128.999 504.62Z" fill="#FC6D26"/>
<path d="M146.682 482.097L148.923 488.942C149.023 489.247 149.024 489.575 148.924 489.879C148.825 490.184 148.631 490.449 148.371 490.637L128.999 504.62L146.678 482.097H146.682Z" fill="#FCA326"/>
<path d="M146.687 482.097H136.367L140.801 468.528C140.851 468.376 140.949 468.244 141.079 468.151C141.209 468.057 141.366 468.007 141.527 468.007C141.688 468.007 141.844 468.057 141.975 468.151C142.105 468.244 142.202 468.376 142.253 468.528L146.687 482.097Z" fill="#E24329"/>
<g filter="url(#filter4_ddd)">
<rect x="80" y="556" width="522" height="99" rx="8" fill="white"/>
</g>
<path d="M171.184 613H174.088V595.96H171.184V613ZM178.041 613H180.729V607.168C180.729 604.864 181.929 603.544 183.537 603.544C185.121 603.544 185.865 604.792 185.865 606.904V613H188.553V607.168C188.553 604.864 189.777 603.544 191.289 603.544C192.873 603.544 193.569 604.792 193.569 606.904V613H196.257V606.232C196.257 602.728 194.721 601.12 192.153 601.12C190.425 601.12 188.937 601.792 187.953 603.064H187.905C187.209 601.744 185.985 601.12 184.401 601.12C183.057 601.12 181.713 601.744 180.753 602.896H180.729V601.288H178.041V613ZM204.524 613.192C206.156 613.192 207.404 612.568 208.244 611.44L208.292 611.464V613H210.86V601.288H208.172V602.704L208.124 602.728C207.284 601.672 205.988 601.12 204.5 601.12C201.284 601.12 198.86 603.664 198.86 607.192C198.86 610.816 201.284 613.192 204.524 613.192ZM204.956 610.744C202.964 610.744 201.596 609.28 201.596 607.216C201.596 604.96 203.084 603.544 204.956 603.544C206.876 603.544 208.292 605.128 208.292 607.216C208.292 609.328 206.78 610.744 204.956 610.744ZM219.484 617.92C223.828 617.92 225.46 615.352 225.46 611.8V601.288H222.772V602.536H222.724C221.74 601.6 220.42 601.12 219.076 601.12C215.836 601.12 213.508 603.592 213.508 607.024C213.508 610.504 215.956 612.808 219.22 612.808C220.66 612.808 221.884 612.28 222.772 611.392H222.82V612.616C222.82 614.176 221.644 615.496 219.34 615.496C217.66 615.496 216.628 615.016 215.356 614.344L214.708 616.696C216.028 617.488 217.732 617.92 219.484 617.92ZM219.58 610.336C217.684 610.336 216.244 609.04 216.244 606.952C216.244 604.96 217.588 603.568 219.58 603.568C221.452 603.568 222.892 604.912 222.892 606.904C222.892 608.896 221.524 610.336 219.58 610.336ZM239.534 607C239.534 603.592 237.302 601.12 234.014 601.12C230.582 601.12 228.134 603.544 228.134 607.144C228.134 610.816 230.654 613.192 234.206 613.192C236.726 613.192 238.19 612.256 239.174 610.984L237.302 609.376C236.702 610.12 235.742 610.744 234.35 610.744C232.526 610.744 231.254 609.736 230.918 608.032H239.462C239.486 607.84 239.534 607.432 239.534 607ZM233.99 603.544C235.526 603.544 236.486 604.504 236.822 605.92H230.966C231.35 604.384 232.502 603.544 233.99 603.544ZM246.051 613.192C249.027 613.192 250.419 611.608 250.419 609.64C250.419 607.312 248.859 606.856 246.363 605.872C245.235 605.44 244.515 605.032 244.515 604.456C244.515 603.736 245.259 603.448 245.787 603.448C246.699 603.448 247.779 603.808 248.715 604.696L250.059 602.584C248.763 601.528 247.419 601.12 245.931 601.12C243.531 601.12 241.803 602.512 241.803 604.432C241.803 606.736 243.459 607.6 245.379 608.272C246.915 608.8 247.683 609.088 247.683 609.688C247.683 610.384 247.083 610.84 246.051 610.84C244.611 610.84 243.603 610.384 242.667 609.472L241.323 611.488C242.547 612.568 244.155 613.192 246.051 613.192Z" fill="#746E8C"/>
<g clip-path="url(#clip1)">
<path d="M120.628 587L109 594.535L117.093 601.047L128.721 593.791L120.628 587ZM109 607.372L120.628 615L128.721 608.209L117.093 601.047L109 607.372ZM128.721 608.209L136.907 615L148.442 607.465L140.442 601.047L128.721 608.209ZM148.442 594.535L136.907 587L128.721 593.791L140.442 601.047L148.442 594.535ZM128.814 609.698L120.628 616.488L117.186 614.163V616.767L128.814 623.744L140.442 616.767V614.163L136.907 616.488L128.814 609.698Z" fill="#007EE5"/>
</g>
<defs>
<filter id="filter0_ddd" x="56" y="72" width="570" height="147" filterUnits="userSpaceOnUse" color-interpolation-filters="sRGB">
<feFlood flood-opacity="0" result="BackgroundImageFix"/>
<feColorMatrix in="SourceAlpha" type="matrix" values="0 0 0 0 0 0 0 0 0 0 0 0 0 0 0 0 0 0 127 0"/>
<feOffset/>
<feGaussianBlur stdDeviation="0.5"/>
<feColorMatrix type="matrix" values="0 0 0 0 0 0 0 0 0 0 0 0 0 0 0 0 0 0 0.04 0"/>
<feBlend mode="normal" in2="BackgroundImageFix" result="effect1_dropShadow"/>
<feColorMatrix in="SourceAlpha" type="matrix" values="0 0 0 0 0 0 0 0 0 0 0 0 0 0 0 0 0 0 127 0"/>
<feOffset dy="2"/>
<feGaussianBlur stdDeviation="3"/>
<feColorMatrix type="matrix" values="0 0 0 0 0 0 0 0 0 0 0 0 0 0 0 0 0 0 0.04 0"/>
<feBlend mode="normal" in2="effect1_dropShadow" result="effect2_dropShadow"/>
<feColorMatrix in="SourceAlpha" type="matrix" values="0 0 0 0 0 0 0 0 0 0 0 0 0 0 0 0 0 0 127 0"/>
<feOffset dy="16"/>
<feGaussianBlur stdDeviation="12"/>
<feColorMatrix type="matrix" values="0 0 0 0 0 0 0 0 0 0 0 0 0 0 0 0 0 0 0.06 0"/>
<feBlend mode="normal" in2="effect2_dropShadow" result="effect3_dropShadow"/>
<feBlend mode="normal" in="SourceGraphic" in2="effect3_dropShadow" result="shape"/>
</filter>
<filter id="filter1_ddd" x="56" y="191" width="570" height="147" filterUnits="userSpaceOnUse" color-interpolation-filters="sRGB">
<feFlood flood-opacity="0" result="BackgroundImageFix"/>
<feColorMatrix in="SourceAlpha" type="matrix" values="0 0 0 0 0 0 0 0 0 0 0 0 0 0 0 0 0 0 127 0"/>
<feOffset/>
<feGaussianBlur stdDeviation="0.5"/>
<feColorMatrix type="matrix" values="0 0 0 0 0 0 0 0 0 0 0 0 0 0 0 0 0 0 0.04 0"/>
<feBlend mode="normal" in2="BackgroundImageFix" result="effect1_dropShadow"/>
<feColorMatrix in="SourceAlpha" type="matrix" values="0 0 0 0 0 0 0 0 0 0 0 0 0 0 0 0 0 0 127 0"/>
<feOffset dy="2"/>
<feGaussianBlur stdDeviation="3"/>
<feColorMatrix type="matrix" values="0 0 0 0 0 0 0 0 0 0 0 0 0 0 0 0 0 0 0.04 0"/>
<feBlend mode="normal" in2="effect1_dropShadow" result="effect2_dropShadow"/>
<feColorMatrix in="SourceAlpha" type="matrix" values="0 0 0 0 0 0 0 0 0 0 0 0 0 0 0 0 0 0 127 0"/>
<feOffset dy="16"/>
<feGaussianBlur stdDeviation="12"/>
<feColorMatrix type="matrix" values="0 0 0 0 0 0 0 0 0 0 0 0 0 0 0 0 0 0 0.06 0"/>
<feBlend mode="normal" in2="effect2_dropShadow" result="effect3_dropShadow"/>
<feBlend mode="normal" in="SourceGraphic" in2="effect3_dropShadow" result="shape"/>
</filter>
<filter id="filter2_ddd" x="56" y="310" width="570" height="147" filterUnits="userSpaceOnUse" color-interpolation-filters="sRGB">
<feFlood flood-opacity="0" result="BackgroundImageFix"/>
<feColorMatrix in="SourceAlpha" type="matrix" values="0 0 0 0 0 0 0 0 0 0 0 0 0 0 0 0 0 0 127 0"/>
<feOffset/>
<feGaussianBlur stdDeviation="0.5"/>
<feColorMatrix type="matrix" values="0 0 0 0 0 0 0 0 0 0 0 0 0 0 0 0 0 0 0.04 0"/>
<feBlend mode="normal" in2="BackgroundImageFix" result="effect1_dropShadow"/>
<feColorMatrix in="SourceAlpha" type="matrix" values="0 0 0 0 0 0 0 0 0 0 0 0 0 0 0 0 0 0 127 0"/>
<feOffset dy="2"/>
<feGaussianBlur stdDeviation="3"/>
<feColorMatrix type="matrix" values="0 0 0 0 0 0 0 0 0 0 0 0 0 0 0 0 0 0 0.04 0"/>
<feBlend mode="normal" in2="effect1_dropShadow" result="effect2_dropShadow"/>
<feColorMatrix in="SourceAlpha" type="matrix" values="0 0 0 0 0 0 0 0 0 0 0 0 0 0 0 0 0 0 127 0"/>
<feOffset dy="16"/>
<feGaussianBlur stdDeviation="12"/>
<feColorMatrix type="matrix" values="0 0 0 0 0 0 0 0 0 0 0 0 0 0 0 0 0 0 0.06 0"/>
<feBlend mode="normal" in2="effect2_dropShadow" result="effect3_dropShadow"/>
<feBlend mode="normal" in="SourceGraphic" in2="effect3_dropShadow" result="shape"/>
</filter>
<filter id="filter3_ddd" x="56" y="429" width="570" height="147" filterUnits="userSpaceOnUse" color-interpolation-filters="sRGB">
<feFlood flood-opacity="0" result="BackgroundImageFix"/>
<feColorMatrix in="SourceAlpha" type="matrix" values="0 0 0 0 0 0 0 0 0 0 0 0 0 0 0 0 0 0 127 0"/>
<feOffset/>
<feGaussianBlur stdDeviation="0.5"/>
<feColorMatrix type="matrix" values="0 0 0 0 0 0 0 0 0 0 0 0 0 0 0 0 0 0 0.04 0"/>
<feBlend mode="normal" in2="BackgroundImageFix" result="effect1_dropShadow"/>
<feColorMatrix in="SourceAlpha" type="matrix" values="0 0 0 0 0 0 0 0 0 0 0 0 0 0 0 0 0 0 127 0"/>
<feOffset dy="2"/>
<feGaussianBlur stdDeviation="3"/>
<feColorMatrix type="matrix" values="0 0 0 0 0 0 0 0 0 0 0 0 0 0 0 0 0 0 0.04 0"/>
<feBlend mode="normal" in2="effect1_dropShadow" result="effect2_dropShadow"/>
<feColorMatrix in="SourceAlpha" type="matrix" values="0 0 0 0 0 0 0 0 0 0 0 0 0 0 0 0 0 0 127 0"/>
<feOffset dy="16"/>
<feGaussianBlur stdDeviation="12"/>
<feColorMatrix type="matrix" values="0 0 0 0 0 0 0 0 0 0 0 0 0 0 0 0 0 0 0.06 0"/>
<feBlend mode="normal" in2="effect2_dropShadow" result="effect3_dropShadow"/>
<feBlend mode="normal" in="SourceGraphic" in2="effect3_dropShadow" result="shape"/>
</filter>
<filter id="filter4_ddd" x="56" y="548" width="570" height="147" filterUnits="userSpaceOnUse" color-interpolation-filters="sRGB">
<feFlood flood-opacity="0" result="BackgroundImageFix"/>
<feColorMatrix in="SourceAlpha" type="matrix" values="0 0 0 0 0 0 0 0 0 0 0 0 0 0 0 0 0 0 127 0"/>
<feOffset/>
<feGaussianBlur stdDeviation="0.5"/>
<feColorMatrix type="matrix" values="0 0 0 0 0 0 0 0 0 0 0 0 0 0 0 0 0 0 0.04 0"/>
<feBlend mode="normal" in2="BackgroundImageFix" result="effect1_dropShadow"/>
<feColorMatrix in="SourceAlpha" type="matrix" values="0 0 0 0 0 0 0 0 0 0 0 0 0 0 0 0 0 0 127 0"/>
<feOffset dy="2"/>
<feGaussianBlur stdDeviation="3"/>
<feColorMatrix type="matrix" values="0 0 0 0 0 0 0 0 0 0 0 0 0 0 0 0 0 0 0.04 0"/>
<feBlend mode="normal" in2="effect1_dropShadow" result="effect2_dropShadow"/>
<feColorMatrix in="SourceAlpha" type="matrix" values="0 0 0 0 0 0 0 0 0 0 0 0 0 0 0 0 0 0 127 0"/>
<feOffset dy="16"/>
<feGaussianBlur stdDeviation="12"/>
<feColorMatrix type="matrix" values="0 0 0 0 0 0 0 0 0 0 0 0 0 0 0 0 0 0 0.06 0"/>
<feBlend mode="normal" in2="effect2_dropShadow" result="effect3_dropShadow"/>
<feBlend mode="normal" in="SourceGraphic" in2="effect3_dropShadow" result="shape"/>
</filter>
<clipPath id="clip0">
<rect x="109" y="230" width="40" height="36.9231" fill="white"/>
</clipPath>
<clipPath id="clip1">
<rect x="109" y="587" width="40" height="37.2093" fill="white"/>
</clipPath>
</defs>
</svg>
