<svg width="64" height="63" viewBox="0 0 64 63" fill="none" xmlns="http://www.w3.org/2000/svg">
<path d="M62.0001 26.2611L32.7281 55.5753C29.3524 58.9555 24.774 60.8545 20.0001 60.8545C15.2262 60.8545 10.6478 58.9555 7.27211 55.5753C3.89643 52.195 2 47.6105 2 42.8301C2 38.0497 3.89643 33.4652 7.27211 30.0849L31.3148 6.01252C32.4217 4.86485 33.7459 3.94943 35.2099 3.31967C36.674 2.68992 38.2486 2.35843 39.842 2.34457C41.4353 2.33071 43.0155 2.63474 44.4902 3.23892C45.965 3.8431 47.3048 4.73534 48.4315 5.86358C49.5582 6.99181 50.4493 8.33344 51.0526 9.81018C51.656 11.2869 51.9596 12.8692 51.9458 14.4647C51.932 16.0602 51.6009 17.637 50.972 19.103C50.3431 20.569 49.4289 21.8949 48.2828 23.0034L24.2428 47.0892C23.1113 48.1838 21.5958 48.7896 20.0226 48.7762C18.4495 48.7627 16.9445 48.1311 15.8319 47.0173C14.7192 45.9035 14.088 44.3967 14.0741 42.8214C14.0601 41.2461 14.6647 39.7284 15.7574 38.5951L39.8001 14.512" stroke="#2F80ED" stroke-width="3" stroke-linecap="round" stroke-linejoin="round"/>
</svg>
