<svg width="64" height="56" viewBox="0 0 64 56" fill="none" xmlns="http://www.w3.org/2000/svg">
<path d="M2 54.4182H62" stroke="#50D38D" stroke-width="3" stroke-linecap="round" stroke-linejoin="round"/>
<path d="M16 26.3807H8C7.46957 26.3807 6.96086 26.5917 6.58579 26.9673C6.21071 27.3429 6 27.8523 6 28.3834V54.4182H18V28.3834C18 27.8523 17.7893 27.3429 17.4142 26.9673C17.0391 26.5917 16.5304 26.3807 16 26.3807Z" stroke="#50D38D" stroke-width="3" stroke-linecap="round" stroke-linejoin="round"/>
<path d="M36 2.34821H28C27.4696 2.34821 26.9609 2.5592 26.5858 2.93478C26.2107 3.31036 26 3.81975 26 4.3509V54.4182H38V4.3509C38 3.81975 37.7893 3.31036 37.4142 2.93478C37.0391 2.5592 36.5304 2.34821 36 2.34821Z" stroke="#50D38D" stroke-width="3" stroke-linecap="round" stroke-linejoin="round"/>
<path d="M56 14.3644H48C47.4696 14.3644 46.9609 14.5754 46.5858 14.951C46.2107 15.3265 46 15.8359 46 16.3671V54.4182H58V16.3671C58 15.8359 57.7893 15.3265 57.4142 14.951C57.0391 14.5754 56.5304 14.3644 56 14.3644Z" stroke="#50D38D" stroke-width="3" stroke-linecap="round" stroke-linejoin="round"/>
</svg>
